<?xml version="1.0" encoding="utf-8" standalone="no"?>
<!DOCTYPE svg PUBLIC "-//W3C//DTD SVG 1.1//EN"
  "http://www.w3.org/Graphics/SVG/1.1/DTD/svg11.dtd">
<svg xmlns:xlink="http://www.w3.org/1999/xlink" width="663.535938pt" height="505.795849pt" viewBox="0 0 663.535938 505.795849" xmlns="http://www.w3.org/2000/svg" version="1.1">
 <metadata>
  <rdf:RDF xmlns:dc="http://purl.org/dc/elements/1.1/" xmlns:cc="http://creativecommons.org/ns#" xmlns:rdf="http://www.w3.org/1999/02/22-rdf-syntax-ns#">
   <cc:Work>
    <dc:type rdf:resource="http://purl.org/dc/dcmitype/StillImage"/>
    <dc:format>image/svg+xml</dc:format>
    <dc:creator>
     <cc:Agent>
      <dc:title>Matplotlib v3.11.0, https://matplotlib.org/</dc:title>
     </cc:Agent>
    </dc:creator>
   </cc:Work>
  </rdf:RDF>
 </metadata>
 <defs>
  <style type="text/css">*{stroke-linejoin: round; stroke-linecap: butt}</style>
 </defs>
 <g id="figure_1">
  <g id="patch_1">
   <path d="M 0 505.795849 
L 663.535938 505.795849 
L 663.535938 0 
L 0 0 
z
" style="fill: #ffffff"/>
  </g>
  <g id="axes_1">
   <g id="patch_2">
    <path d="M 98.335938 284.4 
L 656.335938 284.4 
L 656.335938 7.2 
L 98.335938 7.2 
z
" style="fill: #ffffff"/>
   </g>
   <g id="matplotlib.axis_1">
    <g id="xtick_1">
     <g id="line2d_1">
      <path d="M 139.608986 284.4 
L 139.608986 7.2 
" clip-path="url(#p4c115cddd2)" style="fill: none; stroke: #b0b0b0; stroke-opacity: 0.25; stroke-width: 1.2; stroke-linecap: square"/>
     </g>
     <g id="line2d_2">
      <defs>
       <path id="m9e7cba4e4d" d="M 0 0 
L 0 -3 
" style="stroke: #000000; stroke-width: 1.5"/>
      </defs>
      <g>
       <use xlink:href="#m9e7cba4e4d" x="139.608986" y="284.4" style="stroke: #000000; stroke-width: 1.5"/>
      </g>
     </g>
     <g id="text_1">
      <!-- 310k -->
      <g transform="translate(119.706486 300.0575) scale(0.16 -0.16)">
       <defs>
        <path id="DejaVuSans-16" d="M 2597 2516 
Q 3050 2419 3304 2112 
Q 3559 1806 3559 1356 
Q 3559 666 3084 287 
Q 2609 -91 1734 -91 
Q 1441 -91 1130 -33 
Q 819 25 488 141 
L 488 750 
Q 750 597 1062 519 
Q 1375 441 1716 441 
Q 2309 441 2620 675 
Q 2931 909 2931 1356 
Q 2931 1769 2642 2001 
Q 2353 2234 1838 2234 
L 1294 2234 
L 1294 2753 
L 1863 2753 
Q 2328 2753 2575 2939 
Q 2822 3125 2822 3475 
Q 2822 3834 2567 4026 
Q 2313 4219 1838 4219 
Q 1578 4219 1281 4162 
Q 984 4106 628 3988 
L 628 4550 
Q 988 4650 1302 4700 
Q 1616 4750 1894 4750 
Q 2613 4750 3031 4423 
Q 3450 4097 3450 3541 
Q 3450 3153 3228 2886 
Q 3006 2619 2597 2516 
z
" transform="scale(0.015625)"/>
        <path id="DejaVuSans-14" d="M 794 531 
L 1825 531 
L 1825 4091 
L 703 3866 
L 703 4441 
L 1819 4666 
L 2450 4666 
L 2450 531 
L 3481 531 
L 3481 0 
L 794 0 
L 794 531 
z
" transform="scale(0.015625)"/>
        <path id="DejaVuSans-13" d="M 2034 4250 
Q 1547 4250 1301 3770 
Q 1056 3291 1056 2328 
Q 1056 1369 1301 889 
Q 1547 409 2034 409 
Q 2525 409 2770 889 
Q 3016 1369 3016 2328 
Q 3016 3291 2770 3770 
Q 2525 4250 2034 4250 
z
M 2034 4750 
Q 2819 4750 3233 4129 
Q 3647 3509 3647 2328 
Q 3647 1150 3233 529 
Q 2819 -91 2034 -91 
Q 1250 -91 836 529 
Q 422 1150 422 2328 
Q 422 3509 836 4129 
Q 1250 4750 2034 4750 
z
" transform="scale(0.015625)"/>
        <path id="DejaVuSans-4e" d="M 581 4863 
L 1159 4863 
L 1159 1991 
L 2875 3500 
L 3609 3500 
L 1753 1863 
L 3688 0 
L 2938 0 
L 1159 1709 
L 1159 0 
L 581 0 
L 581 4863 
z
" transform="scale(0.015625)"/>
       </defs>
       <use xlink:href="#DejaVuSans-16"/>
       <use xlink:href="#DejaVuSans-14" transform="translate(63.625 0)"/>
       <use xlink:href="#DejaVuSans-13" transform="translate(127.25 0)"/>
       <use xlink:href="#DejaVuSans-4e" transform="translate(190.875 0)"/>
      </g>
     </g>
    </g>
    <g id="xtick_2">
     <g id="line2d_3">
      <path d="M 262.854422 284.4 
L 262.854422 7.2 
" clip-path="url(#p4c115cddd2)" style="fill: none; stroke: #b0b0b0; stroke-opacity: 0.25; stroke-width: 1.2; stroke-linecap: square"/>
     </g>
     <g id="line2d_4">
      <g>
       <use xlink:href="#m9e7cba4e4d" x="262.854422" y="284.4" style="stroke: #000000; stroke-width: 1.5"/>
      </g>
     </g>
     <g id="text_2">
      <!-- 320k -->
      <g transform="translate(242.951922 300.0575) scale(0.16 -0.16)">
       <defs>
        <path id="DejaVuSans-15" d="M 1228 531 
L 3431 531 
L 3431 0 
L 469 0 
L 469 531 
Q 828 903 1448 1529 
Q 2069 2156 2228 2338 
Q 2531 2678 2651 2914 
Q 2772 3150 2772 3378 
Q 2772 3750 2511 3984 
Q 2250 4219 1831 4219 
Q 1534 4219 1204 4116 
Q 875 4013 500 3803 
L 500 4441 
Q 881 4594 1212 4672 
Q 1544 4750 1819 4750 
Q 2544 4750 2975 4387 
Q 3406 4025 3406 3419 
Q 3406 3131 3298 2873 
Q 3191 2616 2906 2266 
Q 2828 2175 2409 1742 
Q 1991 1309 1228 531 
z
" transform="scale(0.015625)"/>
       </defs>
       <use xlink:href="#DejaVuSans-16"/>
       <use xlink:href="#DejaVuSans-15" transform="translate(63.625 0)"/>
       <use xlink:href="#DejaVuSans-13" transform="translate(127.25 0)"/>
       <use xlink:href="#DejaVuSans-4e" transform="translate(190.875 0)"/>
      </g>
     </g>
    </g>
    <g id="xtick_3">
     <g id="line2d_5">
      <path d="M 386.099859 284.4 
L 386.099859 7.2 
" clip-path="url(#p4c115cddd2)" style="fill: none; stroke: #b0b0b0; stroke-opacity: 0.25; stroke-width: 1.2; stroke-linecap: square"/>
     </g>
     <g id="line2d_6">
      <g>
       <use xlink:href="#m9e7cba4e4d" x="386.099859" y="284.4" style="stroke: #000000; stroke-width: 1.5"/>
      </g>
     </g>
     <g id="text_3">
      <!-- 330k -->
      <g transform="translate(366.197359 300.0575) scale(0.16 -0.16)">
       <use xlink:href="#DejaVuSans-16"/>
       <use xlink:href="#DejaVuSans-16" transform="translate(63.625 0)"/>
       <use xlink:href="#DejaVuSans-13" transform="translate(127.25 0)"/>
       <use xlink:href="#DejaVuSans-4e" transform="translate(190.875 0)"/>
      </g>
     </g>
    </g>
    <g id="xtick_4">
     <g id="line2d_7">
      <path d="M 509.345296 284.4 
L 509.345296 7.2 
" clip-path="url(#p4c115cddd2)" style="fill: none; stroke: #b0b0b0; stroke-opacity: 0.25; stroke-width: 1.2; stroke-linecap: square"/>
     </g>
     <g id="line2d_8">
      <g>
       <use xlink:href="#m9e7cba4e4d" x="509.345296" y="284.4" style="stroke: #000000; stroke-width: 1.5"/>
      </g>
     </g>
     <g id="text_4">
      <!-- 340k -->
      <g transform="translate(489.442796 300.0575) scale(0.16 -0.16)">
       <defs>
        <path id="DejaVuSans-17" d="M 2419 4116 
L 825 1625 
L 2419 1625 
L 2419 4116 
z
M 2253 4666 
L 3047 4666 
L 3047 1625 
L 3713 1625 
L 3713 1100 
L 3047 1100 
L 3047 0 
L 2419 0 
L 2419 1100 
L 313 1100 
L 313 1709 
L 2253 4666 
z
" transform="scale(0.015625)"/>
       </defs>
       <use xlink:href="#DejaVuSans-16"/>
       <use xlink:href="#DejaVuSans-17" transform="translate(63.625 0)"/>
       <use xlink:href="#DejaVuSans-13" transform="translate(127.25 0)"/>
       <use xlink:href="#DejaVuSans-4e" transform="translate(190.875 0)"/>
      </g>
     </g>
    </g>
    <g id="xtick_5">
     <g id="line2d_9">
      <path d="M 632.590732 284.4 
L 632.590732 7.2 
" clip-path="url(#p4c115cddd2)" style="fill: none; stroke: #b0b0b0; stroke-opacity: 0.25; stroke-width: 1.2; stroke-linecap: square"/>
     </g>
     <g id="line2d_10">
      <g>
       <use xlink:href="#m9e7cba4e4d" x="632.590732" y="284.4" style="stroke: #000000; stroke-width: 1.5"/>
      </g>
     </g>
     <g id="text_5">
      <!-- 350k -->
      <g transform="translate(612.688232 300.0575) scale(0.16 -0.16)">
       <defs>
        <path id="DejaVuSans-18" d="M 691 4666 
L 3169 4666 
L 3169 4134 
L 1269 4134 
L 1269 2991 
Q 1406 3038 1543 3061 
Q 1681 3084 1819 3084 
Q 2600 3084 3056 2656 
Q 3513 2228 3513 1497 
Q 3513 744 3044 326 
Q 2575 -91 1722 -91 
Q 1428 -91 1123 -41 
Q 819 9 494 109 
L 494 744 
Q 775 591 1075 516 
Q 1375 441 1709 441 
Q 2250 441 2565 725 
Q 2881 1009 2881 1497 
Q 2881 1984 2565 2268 
Q 2250 2553 1709 2553 
Q 1456 2553 1204 2497 
Q 953 2441 691 2322 
L 691 4666 
z
" transform="scale(0.015625)"/>
       </defs>
       <use xlink:href="#DejaVuSans-16"/>
       <use xlink:href="#DejaVuSans-18" transform="translate(63.625 0)"/>
       <use xlink:href="#DejaVuSans-13" transform="translate(127.25 0)"/>
       <use xlink:href="#DejaVuSans-4e" transform="translate(190.875 0)"/>
      </g>
     </g>
    </g>
    <g id="text_6">
     <!-- EBOPs of the selected checkpoint (lower is cheaper) -->
     <g transform="translate(116.24375 323.098125) scale(0.2 -0.2)">
      <defs>
       <path id="DejaVuSans-28" d="M 628 4666 
L 3578 4666 
L 3578 4134 
L 1259 4134 
L 1259 2753 
L 3481 2753 
L 3481 2222 
L 1259 2222 
L 1259 531 
L 3634 531 
L 3634 0 
L 628 0 
L 628 4666 
z
" transform="scale(0.015625)"/>
       <path id="DejaVuSans-25" d="M 1259 2228 
L 1259 519 
L 2272 519 
Q 2781 519 3026 730 
Q 3272 941 3272 1375 
Q 3272 1813 3026 2020 
Q 2781 2228 2272 2228 
L 1259 2228 
z
M 1259 4147 
L 1259 2741 
L 2194 2741 
Q 2656 2741 2882 2914 
Q 3109 3088 3109 3444 
Q 3109 3797 2882 3972 
Q 2656 4147 2194 4147 
L 1259 4147 
z
M 628 4666 
L 2241 4666 
Q 2963 4666 3353 4366 
Q 3744 4066 3744 3513 
Q 3744 3084 3544 2831 
Q 3344 2578 2956 2516 
Q 3422 2416 3680 2098 
Q 3938 1781 3938 1306 
Q 3938 681 3513 340 
Q 3088 0 2303 0 
L 628 0 
L 628 4666 
z
" transform="scale(0.015625)"/>
       <path id="DejaVuSans-32" d="M 2522 4238 
Q 1834 4238 1429 3725 
Q 1025 3213 1025 2328 
Q 1025 1447 1429 934 
Q 1834 422 2522 422 
Q 3209 422 3611 934 
Q 4013 1447 4013 2328 
Q 4013 3213 3611 3725 
Q 3209 4238 2522 4238 
z
M 2522 4750 
Q 3503 4750 4090 4092 
Q 4678 3434 4678 2328 
Q 4678 1225 4090 567 
Q 3503 -91 2522 -91 
Q 1538 -91 948 565 
Q 359 1222 359 2328 
Q 359 3434 948 4092 
Q 1538 4750 2522 4750 
z
" transform="scale(0.015625)"/>
       <path id="DejaVuSans-33" d="M 1259 4147 
L 1259 2394 
L 2053 2394 
Q 2494 2394 2734 2622 
Q 2975 2850 2975 3272 
Q 2975 3691 2734 3919 
Q 2494 4147 2053 4147 
L 1259 4147 
z
M 628 4666 
L 2053 4666 
Q 2838 4666 3239 4311 
Q 3641 3956 3641 3272 
Q 3641 2581 3239 2228 
Q 2838 1875 2053 1875 
L 1259 1875 
L 1259 0 
L 628 0 
L 628 4666 
z
" transform="scale(0.015625)"/>
       <path id="DejaVuSans-56" d="M 2834 3397 
L 2834 2853 
Q 2591 2978 2328 3040 
Q 2066 3103 1784 3103 
Q 1356 3103 1142 2972 
Q 928 2841 928 2578 
Q 928 2378 1081 2264 
Q 1234 2150 1697 2047 
L 1894 2003 
Q 2506 1872 2764 1633 
Q 3022 1394 3022 966 
Q 3022 478 2636 193 
Q 2250 -91 1575 -91 
Q 1294 -91 989 -36 
Q 684 19 347 128 
L 347 722 
Q 666 556 975 473 
Q 1284 391 1588 391 
Q 1994 391 2212 530 
Q 2431 669 2431 922 
Q 2431 1156 2273 1281 
Q 2116 1406 1581 1522 
L 1381 1569 
Q 847 1681 609 1914 
Q 372 2147 372 2553 
Q 372 3047 722 3315 
Q 1072 3584 1716 3584 
Q 2034 3584 2315 3537 
Q 2597 3491 2834 3397 
z
" transform="scale(0.015625)"/>
       <path id="DejaVuSans-3" transform="scale(0.015625)"/>
       <path id="DejaVuSans-52" d="M 1959 3097 
Q 1497 3097 1228 2736 
Q 959 2375 959 1747 
Q 959 1119 1226 758 
Q 1494 397 1959 397 
Q 2419 397 2687 759 
Q 2956 1122 2956 1747 
Q 2956 2369 2687 2733 
Q 2419 3097 1959 3097 
z
M 1959 3584 
Q 2709 3584 3137 3096 
Q 3566 2609 3566 1747 
Q 3566 888 3137 398 
Q 2709 -91 1959 -91 
Q 1206 -91 779 398 
Q 353 888 353 1747 
Q 353 2609 779 3096 
Q 1206 3584 1959 3584 
z
" transform="scale(0.015625)"/>
       <path id="DejaVuSans-49" d="M 2375 4863 
L 2375 4384 
L 1825 4384 
Q 1516 4384 1395 4259 
Q 1275 4134 1275 3809 
L 1275 3500 
L 2222 3500 
L 2222 3053 
L 1275 3053 
L 1275 0 
L 697 0 
L 697 3053 
L 147 3053 
L 147 3500 
L 697 3500 
L 697 3744 
Q 697 4328 969 4595 
Q 1241 4863 1831 4863 
L 2375 4863 
z
" transform="scale(0.015625)"/>
       <path id="DejaVuSans-57" d="M 1172 4494 
L 1172 3500 
L 2356 3500 
L 2356 3053 
L 1172 3053 
L 1172 1153 
Q 1172 725 1289 603 
Q 1406 481 1766 481 
L 2356 481 
L 2356 0 
L 1766 0 
Q 1100 0 847 248 
Q 594 497 594 1153 
L 594 3053 
L 172 3053 
L 172 3500 
L 594 3500 
L 594 4494 
L 1172 4494 
z
" transform="scale(0.015625)"/>
       <path id="DejaVuSans-4b" d="M 3513 2113 
L 3513 0 
L 2938 0 
L 2938 2094 
Q 2938 2591 2744 2837 
Q 2550 3084 2163 3084 
Q 1697 3084 1428 2787 
Q 1159 2491 1159 1978 
L 1159 0 
L 581 0 
L 581 4863 
L 1159 4863 
L 1159 2956 
Q 1366 3272 1645 3428 
Q 1925 3584 2291 3584 
Q 2894 3584 3203 3211 
Q 3513 2838 3513 2113 
z
" transform="scale(0.015625)"/>
       <path id="DejaVuSans-48" d="M 3597 1894 
L 3597 1613 
L 953 1613 
Q 991 1019 1311 708 
Q 1631 397 2203 397 
Q 2534 397 2845 478 
Q 3156 559 3463 722 
L 3463 178 
Q 3153 47 2828 -22 
Q 2503 -91 2169 -91 
Q 1331 -91 842 396 
Q 353 884 353 1716 
Q 353 2575 817 3079 
Q 1281 3584 2069 3584 
Q 2775 3584 3186 3129 
Q 3597 2675 3597 1894 
z
M 3022 2063 
Q 3016 2534 2758 2815 
Q 2500 3097 2075 3097 
Q 1594 3097 1305 2825 
Q 1016 2553 972 2059 
L 3022 2063 
z
" transform="scale(0.015625)"/>
       <path id="DejaVuSans-4f" d="M 603 4863 
L 1178 4863 
L 1178 0 
L 603 0 
L 603 4863 
z
" transform="scale(0.015625)"/>
       <path id="DejaVuSans-46" d="M 3122 3366 
L 3122 2828 
Q 2878 2963 2633 3030 
Q 2388 3097 2138 3097 
Q 1578 3097 1268 2742 
Q 959 2388 959 1747 
Q 959 1106 1268 751 
Q 1578 397 2138 397 
Q 2388 397 2633 464 
Q 2878 531 3122 666 
L 3122 134 
Q 2881 22 2623 -34 
Q 2366 -91 2075 -91 
Q 1284 -91 818 406 
Q 353 903 353 1747 
Q 353 2603 823 3093 
Q 1294 3584 2113 3584 
Q 2378 3584 2631 3529 
Q 2884 3475 3122 3366 
z
" transform="scale(0.015625)"/>
       <path id="DejaVuSans-47" d="M 2906 2969 
L 2906 4863 
L 3481 4863 
L 3481 0 
L 2906 0 
L 2906 525 
Q 2725 213 2448 61 
Q 2172 -91 1784 -91 
Q 1150 -91 751 415 
Q 353 922 353 1747 
Q 353 2572 751 3078 
Q 1150 3584 1784 3584 
Q 2172 3584 2448 3432 
Q 2725 3281 2906 2969 
z
M 947 1747 
Q 947 1113 1208 752 
Q 1469 391 1925 391 
Q 2381 391 2643 752 
Q 2906 1113 2906 1747 
Q 2906 2381 2643 2742 
Q 2381 3103 1925 3103 
Q 1469 3103 1208 2742 
Q 947 2381 947 1747 
z
" transform="scale(0.015625)"/>
       <path id="DejaVuSans-53" d="M 1159 525 
L 1159 -1331 
L 581 -1331 
L 581 3500 
L 1159 3500 
L 1159 2969 
Q 1341 3281 1617 3432 
Q 1894 3584 2278 3584 
Q 2916 3584 3314 3078 
Q 3713 2572 3713 1747 
Q 3713 922 3314 415 
Q 2916 -91 2278 -91 
Q 1894 -91 1617 61 
Q 1341 213 1159 525 
z
M 3116 1747 
Q 3116 2381 2855 2742 
Q 2594 3103 2138 3103 
Q 1681 3103 1420 2742 
Q 1159 2381 1159 1747 
Q 1159 1113 1420 752 
Q 1681 391 2138 391 
Q 2594 391 2855 752 
Q 3116 1113 3116 1747 
z
" transform="scale(0.015625)"/>
       <path id="DejaVuSans-4c" d="M 603 3500 
L 1178 3500 
L 1178 0 
L 603 0 
L 603 3500 
z
M 603 4863 
L 1178 4863 
L 1178 4134 
L 603 4134 
L 603 4863 
z
" transform="scale(0.015625)"/>
       <path id="DejaVuSans-51" d="M 3513 2113 
L 3513 0 
L 2938 0 
L 2938 2094 
Q 2938 2591 2744 2837 
Q 2550 3084 2163 3084 
Q 1697 3084 1428 2787 
Q 1159 2491 1159 1978 
L 1159 0 
L 581 0 
L 581 3500 
L 1159 3500 
L 1159 2956 
Q 1366 3272 1645 3428 
Q 1925 3584 2291 3584 
Q 2894 3584 3203 3211 
Q 3513 2838 3513 2113 
z
" transform="scale(0.015625)"/>
       <path id="DejaVuSans-b" d="M 1984 4856 
Q 1566 4138 1362 3434 
Q 1159 2731 1159 2009 
Q 1159 1288 1364 580 
Q 1569 -128 1984 -844 
L 1484 -844 
Q 1016 -109 783 600 
Q 550 1309 550 2009 
Q 550 2706 781 3412 
Q 1013 4119 1484 4856 
L 1984 4856 
z
" transform="scale(0.015625)"/>
       <path id="DejaVuSans-5a" d="M 269 3500 
L 844 3500 
L 1563 769 
L 2278 3500 
L 2956 3500 
L 3675 769 
L 4391 3500 
L 4966 3500 
L 4050 0 
L 3372 0 
L 2619 2869 
L 1863 0 
L 1184 0 
L 269 3500 
z
" transform="scale(0.015625)"/>
       <path id="DejaVuSans-55" d="M 2631 2963 
Q 2534 3019 2420 3045 
Q 2306 3072 2169 3072 
Q 1681 3072 1420 2755 
Q 1159 2438 1159 1844 
L 1159 0 
L 581 0 
L 581 3500 
L 1159 3500 
L 1159 2956 
Q 1341 3275 1631 3429 
Q 1922 3584 2338 3584 
Q 2397 3584 2469 3576 
Q 2541 3569 2628 3553 
L 2631 2963 
z
" transform="scale(0.015625)"/>
       <path id="DejaVuSans-44" d="M 2194 1759 
Q 1497 1759 1228 1600 
Q 959 1441 959 1056 
Q 959 750 1161 570 
Q 1363 391 1709 391 
Q 2188 391 2477 730 
Q 2766 1069 2766 1631 
L 2766 1759 
L 2194 1759 
z
M 3341 1997 
L 3341 0 
L 2766 0 
L 2766 531 
Q 2569 213 2275 61 
Q 1981 -91 1556 -91 
Q 1019 -91 701 211 
Q 384 513 384 1019 
Q 384 1609 779 1909 
Q 1175 2209 1959 2209 
L 2766 2209 
L 2766 2266 
Q 2766 2663 2505 2880 
Q 2244 3097 1772 3097 
Q 1472 3097 1187 3025 
Q 903 2953 641 2809 
L 641 3341 
Q 956 3463 1253 3523 
Q 1550 3584 1831 3584 
Q 2591 3584 2966 3190 
Q 3341 2797 3341 1997 
z
" transform="scale(0.015625)"/>
       <path id="DejaVuSans-c" d="M 513 4856 
L 1013 4856 
Q 1481 4119 1714 3412 
Q 1947 2706 1947 2009 
Q 1947 1309 1714 600 
Q 1481 -109 1013 -844 
L 513 -844 
Q 928 -128 1133 580 
Q 1338 1288 1338 2009 
Q 1338 2731 1133 3434 
Q 928 4138 513 4856 
z
" transform="scale(0.015625)"/>
      </defs>
      <use xlink:href="#DejaVuSans-28"/>
      <use xlink:href="#DejaVuSans-25" transform="translate(63.1875 0)"/>
      <use xlink:href="#DejaVuSans-32" transform="translate(130.046875 0)"/>
      <use xlink:href="#DejaVuSans-33" transform="translate(208.765625 0)"/>
      <use xlink:href="#DejaVuSans-56" transform="translate(267.3125 0)"/>
      <use xlink:href="#DejaVuSans-3" transform="translate(319.40625 0)"/>
      <use xlink:href="#DejaVuSans-52" transform="translate(351.1875 0)"/>
      <use xlink:href="#DejaVuSans-49" transform="translate(412.375 0)"/>
      <use xlink:href="#DejaVuSans-3" transform="translate(447.578125 0)"/>
      <use xlink:href="#DejaVuSans-57" transform="translate(479.359375 0)"/>
      <use xlink:href="#DejaVuSans-4b" transform="translate(518.5625 0)"/>
      <use xlink:href="#DejaVuSans-48" transform="translate(581.9375 0)"/>
      <use xlink:href="#DejaVuSans-3" transform="translate(643.46875 0)"/>
      <use xlink:href="#DejaVuSans-56" transform="translate(675.25 0)"/>
      <use xlink:href="#DejaVuSans-48" transform="translate(727.34375 0)"/>
      <use xlink:href="#DejaVuSans-4f" transform="translate(788.875 0)"/>
      <use xlink:href="#DejaVuSans-48" transform="translate(816.65625 0)"/>
      <use xlink:href="#DejaVuSans-46" transform="translate(878.1875 0)"/>
      <use xlink:href="#DejaVuSans-57" transform="translate(933.171875 0)"/>
      <use xlink:href="#DejaVuSans-48" transform="translate(972.375 0)"/>
      <use xlink:href="#DejaVuSans-47" transform="translate(1033.90625 0)"/>
      <use xlink:href="#DejaVuSans-3" transform="translate(1097.390625 0)"/>
      <use xlink:href="#DejaVuSans-46" transform="translate(1129.171875 0)"/>
      <use xlink:href="#DejaVuSans-4b" transform="translate(1184.15625 0)"/>
      <use xlink:href="#DejaVuSans-48" transform="translate(1247.53125 0)"/>
      <use xlink:href="#DejaVuSans-46" transform="translate(1309.0625 0)"/>
      <use xlink:href="#DejaVuSans-4e" transform="translate(1364.046875 0)"/>
      <use xlink:href="#DejaVuSans-53" transform="translate(1421.953125 0)"/>
      <use xlink:href="#DejaVuSans-52" transform="translate(1485.4375 0)"/>
      <use xlink:href="#DejaVuSans-4c" transform="translate(1546.625 0)"/>
      <use xlink:href="#DejaVuSans-51" transform="translate(1574.40625 0)"/>
      <use xlink:href="#DejaVuSans-57" transform="translate(1637.78125 0)"/>
      <use xlink:href="#DejaVuSans-3" transform="translate(1676.984375 0)"/>
      <use xlink:href="#DejaVuSans-b" transform="translate(1708.765625 0)"/>
      <use xlink:href="#DejaVuSans-4f" transform="translate(1747.78125 0)"/>
      <use xlink:href="#DejaVuSans-52" transform="translate(1775.5625 0)"/>
      <use xlink:href="#DejaVuSans-5a" transform="translate(1836.75 0)"/>
      <use xlink:href="#DejaVuSans-48" transform="translate(1918.53125 0)"/>
      <use xlink:href="#DejaVuSans-55" transform="translate(1980.0625 0)"/>
      <use xlink:href="#DejaVuSans-3" transform="translate(2021.171875 0)"/>
      <use xlink:href="#DejaVuSans-4c" transform="translate(2052.953125 0)"/>
      <use xlink:href="#DejaVuSans-56" transform="translate(2080.734375 0)"/>
      <use xlink:href="#DejaVuSans-3" transform="translate(2132.828125 0)"/>
      <use xlink:href="#DejaVuSans-46" transform="translate(2164.609375 0)"/>
      <use xlink:href="#DejaVuSans-4b" transform="translate(2219.59375 0)"/>
      <use xlink:href="#DejaVuSans-48" transform="translate(2282.96875 0)"/>
      <use xlink:href="#DejaVuSans-44" transform="translate(2344.5 0)"/>
      <use xlink:href="#DejaVuSans-53" transform="translate(2405.78125 0)"/>
      <use xlink:href="#DejaVuSans-48" transform="translate(2469.265625 0)"/>
      <use xlink:href="#DejaVuSans-55" transform="translate(2530.796875 0)"/>
      <use xlink:href="#DejaVuSans-c" transform="translate(2571.90625 0)"/>
     </g>
    </g>
   </g>
   <g id="matplotlib.axis_2">
    <g id="ytick_1">
     <g id="line2d_11">
      <path d="M 98.335938 259.729412 
L 656.335938 259.729412 
" clip-path="url(#p4c115cddd2)" style="fill: none; stroke: #b0b0b0; stroke-opacity: 0.25; stroke-width: 1.2; stroke-linecap: square"/>
     </g>
     <g id="line2d_12">
      <defs>
       <path id="m405a552c82" d="M 0 0 
L 3 0 
" style="stroke: #000000; stroke-width: 1.5"/>
      </defs>
      <g>
       <use xlink:href="#m405a552c82" x="98.335938" y="259.729412" style="stroke: #000000; stroke-width: 1.5"/>
      </g>
     </g>
     <g id="text_7">
      <!-- 57.0 -->
      <g transform="translate(59.210938 265.807537) scale(0.16 -0.16)">
       <defs>
        <path id="DejaVuSans-1a" d="M 525 4666 
L 3525 4666 
L 3525 4397 
L 1831 0 
L 1172 0 
L 2766 4134 
L 525 4134 
L 525 4666 
z
" transform="scale(0.015625)"/>
        <path id="DejaVuSans-11" d="M 684 794 
L 1344 794 
L 1344 0 
L 684 0 
L 684 794 
z
" transform="scale(0.015625)"/>
       </defs>
       <use xlink:href="#DejaVuSans-18"/>
       <use xlink:href="#DejaVuSans-1a" transform="translate(63.625 0)"/>
       <use xlink:href="#DejaVuSans-11" transform="translate(127.25 0)"/>
       <use xlink:href="#DejaVuSans-13" transform="translate(159.03125 0)"/>
      </g>
     </g>
    </g>
    <g id="ytick_2">
     <g id="line2d_13">
      <path d="M 98.335938 190.905882 
L 656.335938 190.905882 
" clip-path="url(#p4c115cddd2)" style="fill: none; stroke: #b0b0b0; stroke-opacity: 0.25; stroke-width: 1.2; stroke-linecap: square"/>
     </g>
     <g id="line2d_14">
      <g>
       <use xlink:href="#m405a552c82" x="98.335938" y="190.905882" style="stroke: #000000; stroke-width: 1.5"/>
      </g>
     </g>
     <g id="text_8">
      <!-- 57.5 -->
      <g transform="translate(59.210938 196.984007) scale(0.16 -0.16)">
       <use xlink:href="#DejaVuSans-18"/>
       <use xlink:href="#DejaVuSans-1a" transform="translate(63.625 0)"/>
       <use xlink:href="#DejaVuSans-11" transform="translate(127.25 0)"/>
       <use xlink:href="#DejaVuSans-18" transform="translate(159.03125 0)"/>
      </g>
     </g>
    </g>
    <g id="ytick_3">
     <g id="line2d_15">
      <path d="M 98.335938 122.082353 
L 656.335938 122.082353 
" clip-path="url(#p4c115cddd2)" style="fill: none; stroke: #b0b0b0; stroke-opacity: 0.25; stroke-width: 1.2; stroke-linecap: square"/>
     </g>
     <g id="line2d_16">
      <g>
       <use xlink:href="#m405a552c82" x="98.335938" y="122.082353" style="stroke: #000000; stroke-width: 1.5"/>
      </g>
     </g>
     <g id="text_9">
      <!-- 58.0 -->
      <g transform="translate(59.210938 128.160478) scale(0.16 -0.16)">
       <defs>
        <path id="DejaVuSans-1b" d="M 2034 2216 
Q 1584 2216 1326 1975 
Q 1069 1734 1069 1313 
Q 1069 891 1326 650 
Q 1584 409 2034 409 
Q 2484 409 2743 651 
Q 3003 894 3003 1313 
Q 3003 1734 2745 1975 
Q 2488 2216 2034 2216 
z
M 1403 2484 
Q 997 2584 770 2862 
Q 544 3141 544 3541 
Q 544 4100 942 4425 
Q 1341 4750 2034 4750 
Q 2731 4750 3128 4425 
Q 3525 4100 3525 3541 
Q 3525 3141 3298 2862 
Q 3072 2584 2669 2484 
Q 3125 2378 3379 2068 
Q 3634 1759 3634 1313 
Q 3634 634 3220 271 
Q 2806 -91 2034 -91 
Q 1263 -91 848 271 
Q 434 634 434 1313 
Q 434 1759 690 2068 
Q 947 2378 1403 2484 
z
M 1172 3481 
Q 1172 3119 1398 2916 
Q 1625 2713 2034 2713 
Q 2441 2713 2670 2916 
Q 2900 3119 2900 3481 
Q 2900 3844 2670 4047 
Q 2441 4250 2034 4250 
Q 1625 4250 1398 4047 
Q 1172 3844 1172 3481 
z
" transform="scale(0.015625)"/>
       </defs>
       <use xlink:href="#DejaVuSans-18"/>
       <use xlink:href="#DejaVuSans-1b" transform="translate(63.625 0)"/>
       <use xlink:href="#DejaVuSans-11" transform="translate(127.25 0)"/>
       <use xlink:href="#DejaVuSans-13" transform="translate(159.03125 0)"/>
      </g>
     </g>
    </g>
    <g id="ytick_4">
     <g id="line2d_17">
      <path d="M 98.335938 53.258824 
L 656.335938 53.258824 
" clip-path="url(#p4c115cddd2)" style="fill: none; stroke: #b0b0b0; stroke-opacity: 0.25; stroke-width: 1.2; stroke-linecap: square"/>
     </g>
     <g id="line2d_18">
      <g>
       <use xlink:href="#m405a552c82" x="98.335938" y="53.258824" style="stroke: #000000; stroke-width: 1.5"/>
      </g>
     </g>
     <g id="text_10">
      <!-- 58.5 -->
      <g transform="translate(59.210938 59.336949) scale(0.16 -0.16)">
       <use xlink:href="#DejaVuSans-18"/>
       <use xlink:href="#DejaVuSans-1b" transform="translate(63.625 0)"/>
       <use xlink:href="#DejaVuSans-11" transform="translate(127.25 0)"/>
       <use xlink:href="#DejaVuSans-18" transform="translate(159.03125 0)"/>
      </g>
     </g>
    </g>
    <g id="text_11">
     <!-- held-out (ROC-test) top-1 -->
     <g transform="translate(24.398828 272.71875) rotate(-90) scale(0.2 -0.2)">
      <defs>
       <path id="DejaVuSans-10" d="M 313 2009 
L 1997 2009 
L 1997 1497 
L 313 1497 
L 313 2009 
z
" transform="scale(0.015625)"/>
       <path id="DejaVuSans-58" d="M 544 1381 
L 544 3500 
L 1119 3500 
L 1119 1403 
Q 1119 906 1312 657 
Q 1506 409 1894 409 
Q 2359 409 2629 706 
Q 2900 1003 2900 1516 
L 2900 3500 
L 3475 3500 
L 3475 0 
L 2900 0 
L 2900 538 
Q 2691 219 2414 64 
Q 2138 -91 1772 -91 
Q 1169 -91 856 284 
Q 544 659 544 1381 
z
M 1991 3584 
L 1991 3584 
z
" transform="scale(0.015625)"/>
       <path id="DejaVuSans-35" d="M 2841 2188 
Q 3044 2119 3236 1894 
Q 3428 1669 3622 1275 
L 4263 0 
L 3584 0 
L 2988 1197 
Q 2756 1666 2539 1819 
Q 2322 1972 1947 1972 
L 1259 1972 
L 1259 0 
L 628 0 
L 628 4666 
L 2053 4666 
Q 2853 4666 3247 4331 
Q 3641 3997 3641 3322 
Q 3641 2881 3436 2590 
Q 3231 2300 2841 2188 
z
M 1259 4147 
L 1259 2491 
L 2053 2491 
Q 2509 2491 2742 2702 
Q 2975 2913 2975 3322 
Q 2975 3731 2742 3939 
Q 2509 4147 2053 4147 
L 1259 4147 
z
" transform="scale(0.015625)"/>
       <path id="DejaVuSans-26" d="M 4122 4306 
L 4122 3641 
Q 3803 3938 3442 4084 
Q 3081 4231 2675 4231 
Q 1875 4231 1450 3742 
Q 1025 3253 1025 2328 
Q 1025 1406 1450 917 
Q 1875 428 2675 428 
Q 3081 428 3442 575 
Q 3803 722 4122 1019 
L 4122 359 
Q 3791 134 3420 21 
Q 3050 -91 2638 -91 
Q 1578 -91 968 557 
Q 359 1206 359 2328 
Q 359 3453 968 4101 
Q 1578 4750 2638 4750 
Q 3056 4750 3426 4639 
Q 3797 4528 4122 4306 
z
" transform="scale(0.015625)"/>
      </defs>
      <use xlink:href="#DejaVuSans-4b"/>
      <use xlink:href="#DejaVuSans-48" transform="translate(63.375 0)"/>
      <use xlink:href="#DejaVuSans-4f" transform="translate(124.90625 0)"/>
      <use xlink:href="#DejaVuSans-47" transform="translate(152.6875 0)"/>
      <use xlink:href="#DejaVuSans-10" transform="translate(216.171875 0)"/>
      <use xlink:href="#DejaVuSans-52" transform="translate(254.109375 0)"/>
      <use xlink:href="#DejaVuSans-58" transform="translate(315.296875 0)"/>
      <use xlink:href="#DejaVuSans-57" transform="translate(378.671875 0)"/>
      <use xlink:href="#DejaVuSans-3" transform="translate(417.875 0)"/>
      <use xlink:href="#DejaVuSans-b" transform="translate(449.65625 0)"/>
      <use xlink:href="#DejaVuSans-35" transform="translate(488.671875 0)"/>
      <use xlink:href="#DejaVuSans-32" transform="translate(558.15625 0)"/>
      <use xlink:href="#DejaVuSans-26" transform="translate(636.875 0)"/>
      <use xlink:href="#DejaVuSans-10" transform="translate(706.703125 0)"/>
      <use xlink:href="#DejaVuSans-57" transform="translate(742.78125 0)"/>
      <use xlink:href="#DejaVuSans-48" transform="translate(781.984375 0)"/>
      <use xlink:href="#DejaVuSans-56" transform="translate(843.515625 0)"/>
      <use xlink:href="#DejaVuSans-57" transform="translate(895.609375 0)"/>
      <use xlink:href="#DejaVuSans-c" transform="translate(934.8125 0)"/>
      <use xlink:href="#DejaVuSans-3" transform="translate(973.828125 0)"/>
      <use xlink:href="#DejaVuSans-57" transform="translate(1005.609375 0)"/>
      <use xlink:href="#DejaVuSans-52" transform="translate(1044.8125 0)"/>
      <use xlink:href="#DejaVuSans-53" transform="translate(1106 0)"/>
      <use xlink:href="#DejaVuSans-10" transform="translate(1169.484375 0)"/>
      <use xlink:href="#DejaVuSans-14" transform="translate(1205.5625 0)"/>
     </g>
     <!-- accuracy [%] (n = 260,000) -->
     <g transform="translate(48.404297 284.809375) rotate(-90) scale(0.2 -0.2)">
      <defs>
       <path id="DejaVuSans-5c" d="M 2059 -325 
Q 1816 -950 1584 -1140 
Q 1353 -1331 966 -1331 
L 506 -1331 
L 506 -850 
L 844 -850 
Q 1081 -850 1212 -737 
Q 1344 -625 1503 -206 
L 1606 56 
L 191 3500 
L 800 3500 
L 1894 763 
L 2988 3500 
L 3597 3500 
L 2059 -325 
z
" transform="scale(0.015625)"/>
       <path id="DejaVuSans-3e" d="M 550 4863 
L 1875 4863 
L 1875 4416 
L 1125 4416 
L 1125 -397 
L 1875 -397 
L 1875 -844 
L 550 -844 
L 550 4863 
z
" transform="scale(0.015625)"/>
       <path id="DejaVuSans-8" d="M 4653 2053 
Q 4381 2053 4226 1822 
Q 4072 1591 4072 1178 
Q 4072 772 4226 539 
Q 4381 306 4653 306 
Q 4919 306 5073 539 
Q 5228 772 5228 1178 
Q 5228 1588 5073 1820 
Q 4919 2053 4653 2053 
z
M 4653 2450 
Q 5147 2450 5437 2106 
Q 5728 1763 5728 1178 
Q 5728 594 5436 251 
Q 5144 -91 4653 -91 
Q 4153 -91 3862 251 
Q 3572 594 3572 1178 
Q 3572 1766 3864 2108 
Q 4156 2450 4653 2450 
z
M 1428 4353 
Q 1159 4353 1004 4120 
Q 850 3888 850 3481 
Q 850 3069 1003 2837 
Q 1156 2606 1428 2606 
Q 1700 2606 1854 2837 
Q 2009 3069 2009 3481 
Q 2009 3884 1853 4118 
Q 1697 4353 1428 4353 
z
M 4250 4750 
L 4750 4750 
L 1831 -91 
L 1331 -91 
L 4250 4750 
z
M 1428 4750 
Q 1922 4750 2215 4408 
Q 2509 4066 2509 3481 
Q 2509 2891 2217 2550 
Q 1925 2209 1428 2209 
Q 931 2209 642 2551 
Q 353 2894 353 3481 
Q 353 4063 643 4406 
Q 934 4750 1428 4750 
z
" transform="scale(0.015625)"/>
       <path id="DejaVuSans-40" d="M 1947 4863 
L 1947 -844 
L 622 -844 
L 622 -397 
L 1369 -397 
L 1369 4416 
L 622 4416 
L 622 4863 
L 1947 4863 
z
" transform="scale(0.015625)"/>
       <path id="DejaVuSans-20" d="M 678 2906 
L 4684 2906 
L 4684 2381 
L 678 2381 
L 678 2906 
z
M 678 1631 
L 4684 1631 
L 4684 1100 
L 678 1100 
L 678 1631 
z
" transform="scale(0.015625)"/>
       <path id="DejaVuSans-19" d="M 2113 2584 
Q 1688 2584 1439 2293 
Q 1191 2003 1191 1497 
Q 1191 994 1439 701 
Q 1688 409 2113 409 
Q 2538 409 2786 701 
Q 3034 994 3034 1497 
Q 3034 2003 2786 2293 
Q 2538 2584 2113 2584 
z
M 3366 4563 
L 3366 3988 
Q 3128 4100 2886 4159 
Q 2644 4219 2406 4219 
Q 1781 4219 1451 3797 
Q 1122 3375 1075 2522 
Q 1259 2794 1537 2939 
Q 1816 3084 2150 3084 
Q 2853 3084 3261 2657 
Q 3669 2231 3669 1497 
Q 3669 778 3244 343 
Q 2819 -91 2113 -91 
Q 1303 -91 875 529 
Q 447 1150 447 2328 
Q 447 3434 972 4092 
Q 1497 4750 2381 4750 
Q 2619 4750 2861 4703 
Q 3103 4656 3366 4563 
z
" transform="scale(0.015625)"/>
       <path id="DejaVuSans-f" d="M 750 794 
L 1409 794 
L 1409 256 
L 897 -744 
L 494 -744 
L 750 256 
L 750 794 
z
" transform="scale(0.015625)"/>
      </defs>
      <use xlink:href="#DejaVuSans-44"/>
      <use xlink:href="#DejaVuSans-46" transform="translate(61.28125 0)"/>
      <use xlink:href="#DejaVuSans-46" transform="translate(116.265625 0)"/>
      <use xlink:href="#DejaVuSans-58" transform="translate(171.25 0)"/>
      <use xlink:href="#DejaVuSans-55" transform="translate(234.625 0)"/>
      <use xlink:href="#DejaVuSans-44" transform="translate(275.734375 0)"/>
      <use xlink:href="#DejaVuSans-46" transform="translate(337.015625 0)"/>
      <use xlink:href="#DejaVuSans-5c" transform="translate(392 0)"/>
      <use xlink:href="#DejaVuSans-3" transform="translate(451.1875 0)"/>
      <use xlink:href="#DejaVuSans-3e" transform="translate(482.96875 0)"/>
      <use xlink:href="#DejaVuSans-8" transform="translate(521.984375 0)"/>
      <use xlink:href="#DejaVuSans-40" transform="translate(617 0)"/>
      <use xlink:href="#DejaVuSans-3" transform="translate(656.015625 0)"/>
      <use xlink:href="#DejaVuSans-b" transform="translate(687.796875 0)"/>
      <use xlink:href="#DejaVuSans-51" transform="translate(726.8125 0)"/>
      <use xlink:href="#DejaVuSans-3" transform="translate(790.1875 0)"/>
      <use xlink:href="#DejaVuSans-20" transform="translate(821.96875 0)"/>
      <use xlink:href="#DejaVuSans-3" transform="translate(905.765625 0)"/>
      <use xlink:href="#DejaVuSans-15" transform="translate(937.546875 0)"/>
      <use xlink:href="#DejaVuSans-19" transform="translate(1001.171875 0)"/>
      <use xlink:href="#DejaVuSans-13" transform="translate(1064.796875 0)"/>
      <use xlink:href="#DejaVuSans-f" transform="translate(1128.421875 0)"/>
      <use xlink:href="#DejaVuSans-13" transform="translate(1160.203125 0)"/>
      <use xlink:href="#DejaVuSans-13" transform="translate(1223.828125 0)"/>
      <use xlink:href="#DejaVuSans-13" transform="translate(1287.453125 0)"/>
      <use xlink:href="#DejaVuSans-c" transform="translate(1351.078125 0)"/>
     </g>
    </g>
   </g>
   <g id="line2d_19">
    <path d="M 632.590732 284.4 
L 632.590732 7.2 
" clip-path="url(#p4c115cddd2)" style="fill: none; stroke-dasharray: 5.55,2.4; stroke-dashoffset: 0; stroke: #000000; stroke-width: 1.5"/>
   </g>
   <g id="patch_3">
    <path d="M 98.335938 284.4 
L 98.335938 7.2 
" style="fill: none; stroke: #000000; stroke-width: 1.5; stroke-linejoin: miter; stroke-linecap: square"/>
   </g>
   <g id="patch_4">
    <path d="M 98.335938 284.4 
L 656.335938 284.4 
" style="fill: none; stroke: #000000; stroke-width: 1.5; stroke-linejoin: miter; stroke-linecap: square"/>
   </g>
   <g id="PathCollection_1">
    <defs>
     <path id="m97083e01e6" d="M 0 5.5 
C 1.458617 5.5 2.857689 4.920485 3.889087 3.889087 
C 4.920485 2.857689 5.5 1.458617 5.5 0 
C 5.5 -1.458617 4.920485 -2.857689 3.889087 -3.889087 
C 2.857689 -4.920485 1.458617 -5.5 0 -5.5 
C -1.458617 -5.5 -2.857689 -4.920485 -3.889087 -3.889087 
C -4.920485 -2.857689 -5.5 -1.458617 -5.5 0 
C -5.5 1.458617 -4.920485 2.857689 -3.889087 3.889087 
C -2.857689 4.920485 -1.458617 5.5 0 5.5 
z
" style="stroke: #000000"/>
    </defs>
    <g clip-path="url(#p4c115cddd2)">
     <use xlink:href="#m97083e01e6" x="614.424355" y="194.241176" style="stroke: #000000"/>
     <use xlink:href="#m97083e01e6" x="236.849635" y="19.8" style="stroke: #000000"/>
     <use xlink:href="#m97083e01e6" x="384.103283" y="78.988235" style="stroke: #000000"/>
     <use xlink:href="#m97083e01e6" x="511.489766" y="212.452941" style="stroke: #000000"/>
     <use xlink:href="#m97083e01e6" x="627.044688" y="189.741176" style="stroke: #000000"/>
     <use xlink:href="#m97083e01e6" x="625.072761" y="267.935294" style="stroke: #000000"/>
    </g>
   </g>
   <g id="PathCollection_2">
    <defs>
     <path id="mcfb6467486" d="M 0 5.5 
C 1.458617 5.5 2.857689 4.920485 3.889087 3.889087 
C 4.920485 2.857689 5.5 1.458617 5.5 0 
C 5.5 -1.458617 4.920485 -2.857689 3.889087 -3.889087 
C 2.857689 -4.920485 1.458617 -5.5 0 -5.5 
C -1.458617 -5.5 -2.857689 -4.920485 -3.889087 -3.889087 
C -4.920485 -2.857689 -5.5 -1.458617 -5.5 0 
C -5.5 1.458617 -4.920485 2.857689 -3.889087 3.889087 
C -2.857689 4.920485 -1.458617 5.5 0 5.5 
z
" style="stroke: #000000; stroke-width: 2.5"/>
    </defs>
    <g clip-path="url(#p4c115cddd2)">
     <use xlink:href="#mcfb6467486" x="612.452428" y="271.8" style="fill: #ffffff; stroke: #000000; stroke-width: 2.5"/>
    </g>
   </g>
   <g id="text_12">
    <!-- target 350,000  -->
    <g transform="translate(628.988658 124.326568) rotate(-90) scale(0.14994 -0.14994)">
     <defs>
      <path id="DejaVuSans-4a" d="M 2906 1791 
Q 2906 2416 2648 2759 
Q 2391 3103 1925 3103 
Q 1463 3103 1205 2759 
Q 947 2416 947 1791 
Q 947 1169 1205 825 
Q 1463 481 1925 481 
Q 2391 481 2648 825 
Q 2906 1169 2906 1791 
z
M 3481 434 
Q 3481 -459 3084 -895 
Q 2688 -1331 1869 -1331 
Q 1566 -1331 1297 -1286 
Q 1028 -1241 775 -1147 
L 775 -588 
Q 1028 -725 1275 -790 
Q 1522 -856 1778 -856 
Q 2344 -856 2625 -561 
Q 2906 -266 2906 331 
L 2906 616 
Q 2728 306 2450 153 
Q 2172 0 1784 0 
Q 1141 0 747 490 
Q 353 981 353 1791 
Q 353 2603 747 3093 
Q 1141 3584 1784 3584 
Q 2172 3584 2450 3431 
Q 2728 3278 2906 2969 
L 2906 3500 
L 3481 3500 
L 3481 434 
z
" transform="scale(0.015625)"/>
     </defs>
     <use xlink:href="#DejaVuSans-57"/>
     <use xlink:href="#DejaVuSans-44" transform="translate(39.203125 0)"/>
     <use xlink:href="#DejaVuSans-55" transform="translate(100.484375 0)"/>
     <use xlink:href="#DejaVuSans-4a" transform="translate(139.84375 0)"/>
     <use xlink:href="#DejaVuSans-48" transform="translate(203.328125 0)"/>
     <use xlink:href="#DejaVuSans-57" transform="translate(264.859375 0)"/>
     <use xlink:href="#DejaVuSans-3" transform="translate(304.0625 0)"/>
     <use xlink:href="#DejaVuSans-16" transform="translate(335.84375 0)"/>
     <use xlink:href="#DejaVuSans-18" transform="translate(399.46875 0)"/>
     <use xlink:href="#DejaVuSans-13" transform="translate(463.09375 0)"/>
     <use xlink:href="#DejaVuSans-f" transform="translate(526.71875 0)"/>
     <use xlink:href="#DejaVuSans-13" transform="translate(558.5 0)"/>
     <use xlink:href="#DejaVuSans-13" transform="translate(622.125 0)"/>
     <use xlink:href="#DejaVuSans-13" transform="translate(685.75 0)"/>
     <use xlink:href="#DejaVuSans-3" transform="translate(749.375 0)"/>
    </g>
   </g>
   <g id="patch_5">
    <path d="M 606.421425 193.216453 
Q 607.447191 193.347796 608.472957 193.479139 
" style="fill: none; stroke: #8c8c8c; stroke-width: 1.2; stroke-linecap: round"/>
   </g>
   <g id="text_13">
    <!-- tensor-wise -->
    <g transform="translate(518.752387 196.856253) scale(0.14994 -0.14994)">
     <use xlink:href="#DejaVuSans-57"/>
     <use xlink:href="#DejaVuSans-48" transform="translate(39.203125 0)"/>
     <use xlink:href="#DejaVuSans-51" transform="translate(100.734375 0)"/>
     <use xlink:href="#DejaVuSans-56" transform="translate(164.109375 0)"/>
     <use xlink:href="#DejaVuSans-52" transform="translate(216.203125 0)"/>
     <use xlink:href="#DejaVuSans-55" transform="translate(277.390625 0)"/>
     <use xlink:href="#DejaVuSans-10" transform="translate(312.109375 0)"/>
     <use xlink:href="#DejaVuSans-5a" transform="translate(348.1875 0)"/>
     <use xlink:href="#DejaVuSans-4c" transform="translate(429.96875 0)"/>
     <use xlink:href="#DejaVuSans-56" transform="translate(457.75 0)"/>
     <use xlink:href="#DejaVuSans-48" transform="translate(509.84375 0)"/>
    </g>
   </g>
   <g id="text_14">
    <!-- channel-wise -->
    <g transform="translate(128.643621 23.695511) scale(0.14994 -0.14994)">
     <use xlink:href="#DejaVuSans-46"/>
     <use xlink:href="#DejaVuSans-4b" transform="translate(54.984375 0)"/>
     <use xlink:href="#DejaVuSans-44" transform="translate(118.359375 0)"/>
     <use xlink:href="#DejaVuSans-51" transform="translate(179.640625 0)"/>
     <use xlink:href="#DejaVuSans-51" transform="translate(243.015625 0)"/>
     <use xlink:href="#DejaVuSans-48" transform="translate(306.390625 0)"/>
     <use xlink:href="#DejaVuSans-4f" transform="translate(367.921875 0)"/>
     <use xlink:href="#DejaVuSans-10" transform="translate(395.703125 0)"/>
     <use xlink:href="#DejaVuSans-5a" transform="translate(431.78125 0)"/>
     <use xlink:href="#DejaVuSans-4c" transform="translate(513.5625 0)"/>
     <use xlink:href="#DejaVuSans-56" transform="translate(541.34375 0)"/>
     <use xlink:href="#DejaVuSans-48" transform="translate(593.4375 0)"/>
    </g>
   </g>
   <g id="text_15">
    <!-- reduced FFN -->
    <g transform="translate(279.802737 82.883747) scale(0.14994 -0.14994)">
     <defs>
      <path id="DejaVuSans-29" d="M 628 4666 
L 3309 4666 
L 3309 4134 
L 1259 4134 
L 1259 2759 
L 3109 2759 
L 3109 2228 
L 1259 2228 
L 1259 0 
L 628 0 
L 628 4666 
z
" transform="scale(0.015625)"/>
      <path id="DejaVuSans-31" d="M 628 4666 
L 1478 4666 
L 3547 763 
L 3547 4666 
L 4159 4666 
L 4159 0 
L 3309 0 
L 1241 3903 
L 1241 0 
L 628 0 
L 628 4666 
z
" transform="scale(0.015625)"/>
     </defs>
     <use xlink:href="#DejaVuSans-55"/>
     <use xlink:href="#DejaVuSans-48" transform="translate(38.90625 0)"/>
     <use xlink:href="#DejaVuSans-47" transform="translate(100.4375 0)"/>
     <use xlink:href="#DejaVuSans-58" transform="translate(163.921875 0)"/>
     <use xlink:href="#DejaVuSans-46" transform="translate(227.296875 0)"/>
     <use xlink:href="#DejaVuSans-48" transform="translate(282.28125 0)"/>
     <use xlink:href="#DejaVuSans-47" transform="translate(343.8125 0)"/>
     <use xlink:href="#DejaVuSans-3" transform="translate(407.296875 0)"/>
     <use xlink:href="#DejaVuSans-29" transform="translate(439.078125 0)"/>
     <use xlink:href="#DejaVuSans-29" transform="translate(496.59375 0)"/>
     <use xlink:href="#DejaVuSans-31" transform="translate(554.109375 0)"/>
    </g>
   </g>
   <g id="text_16">
    <!-- 8-bit attn. prob. -->
    <g transform="translate(383.42373 216.348453) scale(0.14994 -0.14994)">
     <defs>
      <path id="DejaVuSans-45" d="M 3116 1747 
Q 3116 2381 2855 2742 
Q 2594 3103 2138 3103 
Q 1681 3103 1420 2742 
Q 1159 2381 1159 1747 
Q 1159 1113 1420 752 
Q 1681 391 2138 391 
Q 2594 391 2855 752 
Q 3116 1113 3116 1747 
z
M 1159 2969 
Q 1341 3281 1617 3432 
Q 1894 3584 2278 3584 
Q 2916 3584 3314 3078 
Q 3713 2572 3713 1747 
Q 3713 922 3314 415 
Q 2916 -91 2278 -91 
Q 1894 -91 1617 61 
Q 1341 213 1159 525 
L 1159 0 
L 581 0 
L 581 4863 
L 1159 4863 
L 1159 2969 
z
" transform="scale(0.015625)"/>
     </defs>
     <use xlink:href="#DejaVuSans-1b"/>
     <use xlink:href="#DejaVuSans-10" transform="translate(63.625 0)"/>
     <use xlink:href="#DejaVuSans-45" transform="translate(99.703125 0)"/>
     <use xlink:href="#DejaVuSans-4c" transform="translate(163.1875 0)"/>
     <use xlink:href="#DejaVuSans-57" transform="translate(190.96875 0)"/>
     <use xlink:href="#DejaVuSans-3" transform="translate(230.171875 0)"/>
     <use xlink:href="#DejaVuSans-44" transform="translate(261.953125 0)"/>
     <use xlink:href="#DejaVuSans-57" transform="translate(323.234375 0)"/>
     <use xlink:href="#DejaVuSans-57" transform="translate(362.4375 0)"/>
     <use xlink:href="#DejaVuSans-51" transform="translate(401.640625 0)"/>
     <use xlink:href="#DejaVuSans-11" transform="translate(465.015625 0)"/>
     <use xlink:href="#DejaVuSans-3" transform="translate(496.796875 0)"/>
     <use xlink:href="#DejaVuSans-53" transform="translate(528.578125 0)"/>
     <use xlink:href="#DejaVuSans-55" transform="translate(592.0625 0)"/>
     <use xlink:href="#DejaVuSans-52" transform="translate(630.96875 0)"/>
     <use xlink:href="#DejaVuSans-45" transform="translate(692.15625 0)"/>
     <use xlink:href="#DejaVuSans-11" transform="translate(755.640625 0)"/>
    </g>
   </g>
   <g id="patch_6">
    <path d="M 619.044199 176.722274 
Q 621.473058 180.674668 623.901918 184.627062 
" style="fill: none; stroke: #8c8c8c; stroke-width: 1.2; stroke-linecap: round"/>
   </g>
   <g id="text_17">
    <!-- gradual budget -->
    <g transform="translate(501.869682 177.364053) scale(0.14994 -0.14994)">
     <use xlink:href="#DejaVuSans-4a"/>
     <use xlink:href="#DejaVuSans-55" transform="translate(63.484375 0)"/>
     <use xlink:href="#DejaVuSans-44" transform="translate(104.59375 0)"/>
     <use xlink:href="#DejaVuSans-47" transform="translate(165.875 0)"/>
     <use xlink:href="#DejaVuSans-58" transform="translate(229.359375 0)"/>
     <use xlink:href="#DejaVuSans-44" transform="translate(292.734375 0)"/>
     <use xlink:href="#DejaVuSans-4f" transform="translate(354.015625 0)"/>
     <use xlink:href="#DejaVuSans-3" transform="translate(381.796875 0)"/>
     <use xlink:href="#DejaVuSans-45" transform="translate(413.578125 0)"/>
     <use xlink:href="#DejaVuSans-58" transform="translate(477.0625 0)"/>
     <use xlink:href="#DejaVuSans-47" transform="translate(540.4375 0)"/>
     <use xlink:href="#DejaVuSans-4a" transform="translate(603.921875 0)"/>
     <use xlink:href="#DejaVuSans-48" transform="translate(667.40625 0)"/>
     <use xlink:href="#DejaVuSans-57" transform="translate(728.9375 0)"/>
    </g>
   </g>
   <g id="patch_7">
    <path d="M 617.073493 241.525317 
Q 620.203577 251.859446 623.333662 262.193574 
" style="fill: none; stroke: #8c8c8c; stroke-width: 1.2; stroke-linecap: round"/>
   </g>
   <g id="text_18">
    <!-- fixed-width recovery -->
    <g transform="translate(461.351461 238.815311) scale(0.14994 -0.14994)">
     <defs>
      <path id="DejaVuSans-13af" d="M 3431 3500 
L 3431 0 
L 2853 0 
L 2853 3053 
L 1275 3053 
L 1275 0 
L 697 0 
L 697 3053 
L 147 3053 
L 147 3500 
L 697 3500 
L 697 3744 
Q 697 4316 967 4589 
Q 1238 4863 1797 4863 
L 2375 4863 
L 2375 4384 
L 1825 4384 
Q 1516 4384 1395 4259 
Q 1275 4134 1275 3809 
L 1275 3500 
L 3431 3500 
z
M 2853 4856 
L 3431 4856 
L 3431 4128 
L 2853 4128 
L 2853 4856 
z
" transform="scale(0.015625)"/>
      <path id="DejaVuSans-5b" d="M 3513 3500 
L 2247 1797 
L 3578 0 
L 2900 0 
L 1881 1375 
L 863 0 
L 184 0 
L 1544 1831 
L 300 3500 
L 978 3500 
L 1906 2253 
L 2834 3500 
L 3513 3500 
z
" transform="scale(0.015625)"/>
      <path id="DejaVuSans-59" d="M 191 3500 
L 800 3500 
L 1894 563 
L 2988 3500 
L 3597 3500 
L 2284 0 
L 1503 0 
L 191 3500 
z
" transform="scale(0.015625)"/>
     </defs>
     <use xlink:href="#DejaVuSans-13af"/>
     <use xlink:href="#DejaVuSans-5b" transform="translate(62.984375 0)"/>
     <use xlink:href="#DejaVuSans-48" transform="translate(119.09375 0)"/>
     <use xlink:href="#DejaVuSans-47" transform="translate(180.625 0)"/>
     <use xlink:href="#DejaVuSans-10" transform="translate(244.109375 0)"/>
     <use xlink:href="#DejaVuSans-5a" transform="translate(280.1875 0)"/>
     <use xlink:href="#DejaVuSans-4c" transform="translate(361.96875 0)"/>
     <use xlink:href="#DejaVuSans-47" transform="translate(389.75 0)"/>
     <use xlink:href="#DejaVuSans-57" transform="translate(453.234375 0)"/>
     <use xlink:href="#DejaVuSans-4b" transform="translate(492.4375 0)"/>
     <use xlink:href="#DejaVuSans-3" transform="translate(555.8125 0)"/>
     <use xlink:href="#DejaVuSans-55" transform="translate(587.59375 0)"/>
     <use xlink:href="#DejaVuSans-48" transform="translate(626.5 0)"/>
     <use xlink:href="#DejaVuSans-46" transform="translate(688.03125 0)"/>
     <use xlink:href="#DejaVuSans-52" transform="translate(743.015625 0)"/>
     <use xlink:href="#DejaVuSans-59" transform="translate(804.203125 0)"/>
     <use xlink:href="#DejaVuSans-48" transform="translate(863.390625 0)"/>
     <use xlink:href="#DejaVuSans-55" transform="translate(924.921875 0)"/>
     <use xlink:href="#DejaVuSans-5c" transform="translate(966.03125 0)"/>
    </g>
   </g>
   <g id="patch_8">
    <path d="M 604.45194 265.08631 
Q 606.154192 266.514772 607.856444 267.943234 
" style="fill: none; stroke: #8c8c8c; stroke-width: 1.2; stroke-linecap: round"/>
   </g>
   <g id="text_19">
    <!-- distillation (selected from an interim -->
    <g transform="translate(329.177407 258.305462) scale(0.14994 -0.14994)">
     <defs>
      <path id="DejaVuSans-50" d="M 3328 2828 
Q 3544 3216 3844 3400 
Q 4144 3584 4550 3584 
Q 5097 3584 5394 3201 
Q 5691 2819 5691 2113 
L 5691 0 
L 5113 0 
L 5113 2094 
Q 5113 2597 4934 2840 
Q 4756 3084 4391 3084 
Q 3944 3084 3684 2787 
Q 3425 2491 3425 1978 
L 3425 0 
L 2847 0 
L 2847 2094 
Q 2847 2600 2669 2842 
Q 2491 3084 2119 3084 
Q 1678 3084 1418 2786 
Q 1159 2488 1159 1978 
L 1159 0 
L 581 0 
L 581 3500 
L 1159 3500 
L 1159 2956 
Q 1356 3278 1631 3431 
Q 1906 3584 2284 3584 
Q 2666 3584 2933 3390 
Q 3200 3197 3328 2828 
z
" transform="scale(0.015625)"/>
     </defs>
     <use xlink:href="#DejaVuSans-47"/>
     <use xlink:href="#DejaVuSans-4c" transform="translate(63.484375 0)"/>
     <use xlink:href="#DejaVuSans-56" transform="translate(91.265625 0)"/>
     <use xlink:href="#DejaVuSans-57" transform="translate(143.359375 0)"/>
     <use xlink:href="#DejaVuSans-4c" transform="translate(182.5625 0)"/>
     <use xlink:href="#DejaVuSans-4f" transform="translate(210.34375 0)"/>
     <use xlink:href="#DejaVuSans-4f" transform="translate(238.125 0)"/>
     <use xlink:href="#DejaVuSans-44" transform="translate(265.90625 0)"/>
     <use xlink:href="#DejaVuSans-57" transform="translate(327.1875 0)"/>
     <use xlink:href="#DejaVuSans-4c" transform="translate(366.390625 0)"/>
     <use xlink:href="#DejaVuSans-52" transform="translate(394.171875 0)"/>
     <use xlink:href="#DejaVuSans-51" transform="translate(455.359375 0)"/>
     <use xlink:href="#DejaVuSans-3" transform="translate(518.734375 0)"/>
     <use xlink:href="#DejaVuSans-b" transform="translate(550.515625 0)"/>
     <use xlink:href="#DejaVuSans-56" transform="translate(589.53125 0)"/>
     <use xlink:href="#DejaVuSans-48" transform="translate(641.625 0)"/>
     <use xlink:href="#DejaVuSans-4f" transform="translate(703.15625 0)"/>
     <use xlink:href="#DejaVuSans-48" transform="translate(730.9375 0)"/>
     <use xlink:href="#DejaVuSans-46" transform="translate(792.46875 0)"/>
     <use xlink:href="#DejaVuSans-57" transform="translate(847.453125 0)"/>
     <use xlink:href="#DejaVuSans-48" transform="translate(886.65625 0)"/>
     <use xlink:href="#DejaVuSans-47" transform="translate(948.1875 0)"/>
     <use xlink:href="#DejaVuSans-3" transform="translate(1011.671875 0)"/>
     <use xlink:href="#DejaVuSans-49" transform="translate(1043.453125 0)"/>
     <use xlink:href="#DejaVuSans-55" transform="translate(1078.65625 0)"/>
     <use xlink:href="#DejaVuSans-52" transform="translate(1117.5625 0)"/>
     <use xlink:href="#DejaVuSans-50" transform="translate(1178.75 0)"/>
     <use xlink:href="#DejaVuSans-3" transform="translate(1276.15625 0)"/>
     <use xlink:href="#DejaVuSans-44" transform="translate(1307.9375 0)"/>
     <use xlink:href="#DejaVuSans-51" transform="translate(1369.21875 0)"/>
     <use xlink:href="#DejaVuSans-3" transform="translate(1432.59375 0)"/>
     <use xlink:href="#DejaVuSans-4c" transform="translate(1464.375 0)"/>
     <use xlink:href="#DejaVuSans-51" transform="translate(1492.15625 0)"/>
     <use xlink:href="#DejaVuSans-57" transform="translate(1555.53125 0)"/>
     <use xlink:href="#DejaVuSans-48" transform="translate(1594.734375 0)"/>
     <use xlink:href="#DejaVuSans-55" transform="translate(1656.265625 0)"/>
     <use xlink:href="#DejaVuSans-4c" transform="translate(1697.375 0)"/>
     <use xlink:href="#DejaVuSans-50" transform="translate(1725.15625 0)"/>
    </g>
    <!-- snapshot at epoch 898 of 1,000) -->
    <g transform="translate(357.658978 276.302361) scale(0.14994 -0.14994)">
     <defs>
      <path id="DejaVuSans-1c" d="M 703 97 
L 703 672 
Q 941 559 1184 500 
Q 1428 441 1663 441 
Q 2288 441 2617 861 
Q 2947 1281 2994 2138 
Q 2813 1869 2534 1725 
Q 2256 1581 1919 1581 
Q 1219 1581 811 2004 
Q 403 2428 403 3163 
Q 403 3881 828 4315 
Q 1253 4750 1959 4750 
Q 2769 4750 3195 4129 
Q 3622 3509 3622 2328 
Q 3622 1225 3098 567 
Q 2575 -91 1691 -91 
Q 1453 -91 1209 -44 
Q 966 3 703 97 
z
M 1959 2075 
Q 2384 2075 2632 2365 
Q 2881 2656 2881 3163 
Q 2881 3666 2632 3958 
Q 2384 4250 1959 4250 
Q 1534 4250 1286 3958 
Q 1038 3666 1038 3163 
Q 1038 2656 1286 2365 
Q 1534 2075 1959 2075 
z
" transform="scale(0.015625)"/>
     </defs>
     <use xlink:href="#DejaVuSans-56"/>
     <use xlink:href="#DejaVuSans-51" transform="translate(52.09375 0)"/>
     <use xlink:href="#DejaVuSans-44" transform="translate(115.46875 0)"/>
     <use xlink:href="#DejaVuSans-53" transform="translate(176.75 0)"/>
     <use xlink:href="#DejaVuSans-56" transform="translate(240.234375 0)"/>
     <use xlink:href="#DejaVuSans-4b" transform="translate(292.328125 0)"/>
     <use xlink:href="#DejaVuSans-52" transform="translate(355.703125 0)"/>
     <use xlink:href="#DejaVuSans-57" transform="translate(416.890625 0)"/>
     <use xlink:href="#DejaVuSans-3" transform="translate(456.09375 0)"/>
     <use xlink:href="#DejaVuSans-44" transform="translate(487.875 0)"/>
     <use xlink:href="#DejaVuSans-57" transform="translate(549.15625 0)"/>
     <use xlink:href="#DejaVuSans-3" transform="translate(588.359375 0)"/>
     <use xlink:href="#DejaVuSans-48" transform="translate(620.140625 0)"/>
     <use xlink:href="#DejaVuSans-53" transform="translate(681.671875 0)"/>
     <use xlink:href="#DejaVuSans-52" transform="translate(745.15625 0)"/>
     <use xlink:href="#DejaVuSans-46" transform="translate(806.34375 0)"/>
     <use xlink:href="#DejaVuSans-4b" transform="translate(861.328125 0)"/>
     <use xlink:href="#DejaVuSans-3" transform="translate(924.703125 0)"/>
     <use xlink:href="#DejaVuSans-1b" transform="translate(956.484375 0)"/>
     <use xlink:href="#DejaVuSans-1c" transform="translate(1020.109375 0)"/>
     <use xlink:href="#DejaVuSans-1b" transform="translate(1083.734375 0)"/>
     <use xlink:href="#DejaVuSans-3" transform="translate(1147.359375 0)"/>
     <use xlink:href="#DejaVuSans-52" transform="translate(1179.140625 0)"/>
     <use xlink:href="#DejaVuSans-49" transform="translate(1240.328125 0)"/>
     <use xlink:href="#DejaVuSans-3" transform="translate(1275.53125 0)"/>
     <use xlink:href="#DejaVuSans-14" transform="translate(1307.3125 0)"/>
     <use xlink:href="#DejaVuSans-f" transform="translate(1370.9375 0)"/>
     <use xlink:href="#DejaVuSans-13" transform="translate(1402.71875 0)"/>
     <use xlink:href="#DejaVuSans-13" transform="translate(1466.34375 0)"/>
     <use xlink:href="#DejaVuSans-13" transform="translate(1529.96875 0)"/>
     <use xlink:href="#DejaVuSans-c" transform="translate(1593.59375 0)"/>
    </g>
   </g>
  </g>
  <g id="text_20">
   <!-- Status: verified (recomputed here from saved arrays); this campaign has no -->
   <g style="fill: #333333" transform="translate(7.548125 349.517711) scale(0.14994 -0.14994)">
    <defs>
     <path id="DejaVuSans-36" d="M 3425 4513 
L 3425 3897 
Q 3066 4069 2747 4153 
Q 2428 4238 2131 4238 
Q 1616 4238 1336 4038 
Q 1056 3838 1056 3469 
Q 1056 3159 1242 3001 
Q 1428 2844 1947 2747 
L 2328 2669 
Q 3034 2534 3370 2195 
Q 3706 1856 3706 1288 
Q 3706 609 3251 259 
Q 2797 -91 1919 -91 
Q 1588 -91 1214 -16 
Q 841 59 441 206 
L 441 856 
Q 825 641 1194 531 
Q 1563 422 1919 422 
Q 2459 422 2753 634 
Q 3047 847 3047 1241 
Q 3047 1584 2836 1778 
Q 2625 1972 2144 2069 
L 1759 2144 
Q 1053 2284 737 2584 
Q 422 2884 422 3419 
Q 422 4038 858 4394 
Q 1294 4750 2059 4750 
Q 2388 4750 2728 4690 
Q 3069 4631 3425 4513 
z
" transform="scale(0.015625)"/>
     <path id="DejaVuSans-1d" d="M 750 794 
L 1409 794 
L 1409 0 
L 750 0 
L 750 794 
z
M 750 3309 
L 1409 3309 
L 1409 2516 
L 750 2516 
L 750 3309 
z
" transform="scale(0.015625)"/>
     <path id="DejaVuSans-1e" d="M 750 3309 
L 1409 3309 
L 1409 2516 
L 750 2516 
L 750 3309 
z
M 750 794 
L 1409 794 
L 1409 256 
L 897 -744 
L 494 -744 
L 750 256 
L 750 794 
z
" transform="scale(0.015625)"/>
    </defs>
    <use xlink:href="#DejaVuSans-36"/>
    <use xlink:href="#DejaVuSans-57" transform="translate(63.484375 0)"/>
    <use xlink:href="#DejaVuSans-44" transform="translate(102.6875 0)"/>
    <use xlink:href="#DejaVuSans-57" transform="translate(163.96875 0)"/>
    <use xlink:href="#DejaVuSans-58" transform="translate(203.171875 0)"/>
    <use xlink:href="#DejaVuSans-56" transform="translate(266.546875 0)"/>
    <use xlink:href="#DejaVuSans-1d" transform="translate(318.640625 0)"/>
    <use xlink:href="#DejaVuSans-3" transform="translate(352.328125 0)"/>
    <use xlink:href="#DejaVuSans-59" transform="translate(384.109375 0)"/>
    <use xlink:href="#DejaVuSans-48" transform="translate(443.296875 0)"/>
    <use xlink:href="#DejaVuSans-55" transform="translate(504.828125 0)"/>
    <use xlink:href="#DejaVuSans-4c" transform="translate(545.9375 0)"/>
    <use xlink:href="#DejaVuSans-13af" transform="translate(573.71875 0)"/>
    <use xlink:href="#DejaVuSans-48" transform="translate(636.703125 0)"/>
    <use xlink:href="#DejaVuSans-47" transform="translate(698.234375 0)"/>
    <use xlink:href="#DejaVuSans-3" transform="translate(761.71875 0)"/>
    <use xlink:href="#DejaVuSans-b" transform="translate(793.5 0)"/>
    <use xlink:href="#DejaVuSans-55" transform="translate(832.515625 0)"/>
    <use xlink:href="#DejaVuSans-48" transform="translate(871.421875 0)"/>
    <use xlink:href="#DejaVuSans-46" transform="translate(932.953125 0)"/>
    <use xlink:href="#DejaVuSans-52" transform="translate(987.9375 0)"/>
    <use xlink:href="#DejaVuSans-50" transform="translate(1049.125 0)"/>
    <use xlink:href="#DejaVuSans-53" transform="translate(1146.53125 0)"/>
    <use xlink:href="#DejaVuSans-58" transform="translate(1210.015625 0)"/>
    <use xlink:href="#DejaVuSans-57" transform="translate(1273.390625 0)"/>
    <use xlink:href="#DejaVuSans-48" transform="translate(1312.59375 0)"/>
    <use xlink:href="#DejaVuSans-47" transform="translate(1374.125 0)"/>
    <use xlink:href="#DejaVuSans-3" transform="translate(1437.609375 0)"/>
    <use xlink:href="#DejaVuSans-4b" transform="translate(1469.390625 0)"/>
    <use xlink:href="#DejaVuSans-48" transform="translate(1532.765625 0)"/>
    <use xlink:href="#DejaVuSans-55" transform="translate(1594.296875 0)"/>
    <use xlink:href="#DejaVuSans-48" transform="translate(1633.203125 0)"/>
    <use xlink:href="#DejaVuSans-3" transform="translate(1694.734375 0)"/>
    <use xlink:href="#DejaVuSans-49" transform="translate(1726.515625 0)"/>
    <use xlink:href="#DejaVuSans-55" transform="translate(1761.71875 0)"/>
    <use xlink:href="#DejaVuSans-52" transform="translate(1800.625 0)"/>
    <use xlink:href="#DejaVuSans-50" transform="translate(1861.8125 0)"/>
    <use xlink:href="#DejaVuSans-3" transform="translate(1959.21875 0)"/>
    <use xlink:href="#DejaVuSans-56" transform="translate(1991 0)"/>
    <use xlink:href="#DejaVuSans-44" transform="translate(2043.09375 0)"/>
    <use xlink:href="#DejaVuSans-59" transform="translate(2104.375 0)"/>
    <use xlink:href="#DejaVuSans-48" transform="translate(2163.5625 0)"/>
    <use xlink:href="#DejaVuSans-47" transform="translate(2225.09375 0)"/>
    <use xlink:href="#DejaVuSans-3" transform="translate(2288.578125 0)"/>
    <use xlink:href="#DejaVuSans-44" transform="translate(2320.359375 0)"/>
    <use xlink:href="#DejaVuSans-55" transform="translate(2381.640625 0)"/>
    <use xlink:href="#DejaVuSans-55" transform="translate(2421 0)"/>
    <use xlink:href="#DejaVuSans-44" transform="translate(2462.109375 0)"/>
    <use xlink:href="#DejaVuSans-5c" transform="translate(2523.390625 0)"/>
    <use xlink:href="#DejaVuSans-56" transform="translate(2582.578125 0)"/>
    <use xlink:href="#DejaVuSans-c" transform="translate(2634.671875 0)"/>
    <use xlink:href="#DejaVuSans-1e" transform="translate(2673.6875 0)"/>
    <use xlink:href="#DejaVuSans-3" transform="translate(2707.375 0)"/>
    <use xlink:href="#DejaVuSans-57" transform="translate(2739.15625 0)"/>
    <use xlink:href="#DejaVuSans-4b" transform="translate(2778.359375 0)"/>
    <use xlink:href="#DejaVuSans-4c" transform="translate(2841.734375 0)"/>
    <use xlink:href="#DejaVuSans-56" transform="translate(2869.515625 0)"/>
    <use xlink:href="#DejaVuSans-3" transform="translate(2921.609375 0)"/>
    <use xlink:href="#DejaVuSans-46" transform="translate(2953.390625 0)"/>
    <use xlink:href="#DejaVuSans-44" transform="translate(3008.375 0)"/>
    <use xlink:href="#DejaVuSans-50" transform="translate(3069.65625 0)"/>
    <use xlink:href="#DejaVuSans-53" transform="translate(3167.0625 0)"/>
    <use xlink:href="#DejaVuSans-44" transform="translate(3230.546875 0)"/>
    <use xlink:href="#DejaVuSans-4c" transform="translate(3291.828125 0)"/>
    <use xlink:href="#DejaVuSans-4a" transform="translate(3319.609375 0)"/>
    <use xlink:href="#DejaVuSans-51" transform="translate(3383.09375 0)"/>
    <use xlink:href="#DejaVuSans-3" transform="translate(3446.46875 0)"/>
    <use xlink:href="#DejaVuSans-4b" transform="translate(3478.25 0)"/>
    <use xlink:href="#DejaVuSans-44" transform="translate(3541.625 0)"/>
    <use xlink:href="#DejaVuSans-56" transform="translate(3602.90625 0)"/>
    <use xlink:href="#DejaVuSans-3" transform="translate(3655 0)"/>
    <use xlink:href="#DejaVuSans-51" transform="translate(3686.78125 0)"/>
    <use xlink:href="#DejaVuSans-52" transform="translate(3750.15625 0)"/>
   </g>
   <!-- VERIFY.md. -->
   <g style="fill: #333333" transform="translate(7.548125 367.514611) scale(0.14994 -0.14994)">
    <defs>
     <path id="DejaVuSans-39" d="M 1831 0 
L 50 4666 
L 709 4666 
L 2188 738 
L 3669 4666 
L 4325 4666 
L 2547 0 
L 1831 0 
z
" transform="scale(0.015625)"/>
     <path id="DejaVuSans-2c" d="M 628 4666 
L 1259 4666 
L 1259 0 
L 628 0 
L 628 4666 
z
" transform="scale(0.015625)"/>
     <path id="DejaVuSans-3c" d="M -13 4666 
L 666 4666 
L 1959 2747 
L 3244 4666 
L 3922 4666 
L 2272 2222 
L 2272 0 
L 1638 0 
L 1638 2222 
L -13 4666 
z
" transform="scale(0.015625)"/>
    </defs>
    <use xlink:href="#DejaVuSans-39"/>
    <use xlink:href="#DejaVuSans-28" transform="translate(68.40625 0)"/>
    <use xlink:href="#DejaVuSans-35" transform="translate(131.59375 0)"/>
    <use xlink:href="#DejaVuSans-2c" transform="translate(201.078125 0)"/>
    <use xlink:href="#DejaVuSans-29" transform="translate(230.578125 0)"/>
    <use xlink:href="#DejaVuSans-3c" transform="translate(288.09375 0)"/>
    <use xlink:href="#DejaVuSans-11" transform="translate(328.90625 0)"/>
    <use xlink:href="#DejaVuSans-50" transform="translate(360.6875 0)"/>
    <use xlink:href="#DejaVuSans-47" transform="translate(458.09375 0)"/>
    <use xlink:href="#DejaVuSans-11" transform="translate(521.578125 0)"/>
   </g>
   <!-- Current era, EBOP-constrained: N = 8 (pt, etarel, phirel), binary weights. -->
   <g style="fill: #333333" transform="translate(7.548125 385.511511) scale(0.14994 -0.14994)">
    <use xlink:href="#DejaVuSans-26"/>
    <use xlink:href="#DejaVuSans-58" transform="translate(69.828125 0)"/>
    <use xlink:href="#DejaVuSans-55" transform="translate(133.203125 0)"/>
    <use xlink:href="#DejaVuSans-55" transform="translate(172.5625 0)"/>
    <use xlink:href="#DejaVuSans-48" transform="translate(211.46875 0)"/>
    <use xlink:href="#DejaVuSans-51" transform="translate(273 0)"/>
    <use xlink:href="#DejaVuSans-57" transform="translate(336.375 0)"/>
    <use xlink:href="#DejaVuSans-3" transform="translate(375.578125 0)"/>
    <use xlink:href="#DejaVuSans-48" transform="translate(407.359375 0)"/>
    <use xlink:href="#DejaVuSans-55" transform="translate(468.890625 0)"/>
    <use xlink:href="#DejaVuSans-44" transform="translate(510 0)"/>
    <use xlink:href="#DejaVuSans-f" transform="translate(571.28125 0)"/>
    <use xlink:href="#DejaVuSans-3" transform="translate(603.0625 0)"/>
    <use xlink:href="#DejaVuSans-28" transform="translate(634.84375 0)"/>
    <use xlink:href="#DejaVuSans-25" transform="translate(698.03125 0)"/>
    <use xlink:href="#DejaVuSans-32" transform="translate(764.890625 0)"/>
    <use xlink:href="#DejaVuSans-33" transform="translate(843.609375 0)"/>
    <use xlink:href="#DejaVuSans-10" transform="translate(901.703125 0)"/>
    <use xlink:href="#DejaVuSans-46" transform="translate(937.78125 0)"/>
    <use xlink:href="#DejaVuSans-52" transform="translate(992.765625 0)"/>
    <use xlink:href="#DejaVuSans-51" transform="translate(1053.953125 0)"/>
    <use xlink:href="#DejaVuSans-56" transform="translate(1117.328125 0)"/>
    <use xlink:href="#DejaVuSans-57" transform="translate(1169.421875 0)"/>
    <use xlink:href="#DejaVuSans-55" transform="translate(1208.625 0)"/>
    <use xlink:href="#DejaVuSans-44" transform="translate(1249.734375 0)"/>
    <use xlink:href="#DejaVuSans-4c" transform="translate(1311.015625 0)"/>
    <use xlink:href="#DejaVuSans-51" transform="translate(1338.796875 0)"/>
    <use xlink:href="#DejaVuSans-48" transform="translate(1402.171875 0)"/>
    <use xlink:href="#DejaVuSans-47" transform="translate(1463.703125 0)"/>
    <use xlink:href="#DejaVuSans-1d" transform="translate(1527.1875 0)"/>
    <use xlink:href="#DejaVuSans-3" transform="translate(1560.875 0)"/>
    <use xlink:href="#DejaVuSans-31" transform="translate(1592.65625 0)"/>
    <use xlink:href="#DejaVuSans-3" transform="translate(1667.46875 0)"/>
    <use xlink:href="#DejaVuSans-20" transform="translate(1699.25 0)"/>
    <use xlink:href="#DejaVuSans-3" transform="translate(1783.046875 0)"/>
    <use xlink:href="#DejaVuSans-1b" transform="translate(1814.828125 0)"/>
    <use xlink:href="#DejaVuSans-3" transform="translate(1878.453125 0)"/>
    <use xlink:href="#DejaVuSans-b" transform="translate(1910.234375 0)"/>
    <use xlink:href="#DejaVuSans-53" transform="translate(1949.25 0)"/>
    <use xlink:href="#DejaVuSans-57" transform="translate(2012.734375 0)"/>
    <use xlink:href="#DejaVuSans-f" transform="translate(2051.9375 0)"/>
    <use xlink:href="#DejaVuSans-3" transform="translate(2083.71875 0)"/>
    <use xlink:href="#DejaVuSans-48" transform="translate(2115.5 0)"/>
    <use xlink:href="#DejaVuSans-57" transform="translate(2177.03125 0)"/>
    <use xlink:href="#DejaVuSans-44" transform="translate(2216.234375 0)"/>
    <use xlink:href="#DejaVuSans-55" transform="translate(2277.515625 0)"/>
    <use xlink:href="#DejaVuSans-48" transform="translate(2316.421875 0)"/>
    <use xlink:href="#DejaVuSans-4f" transform="translate(2377.953125 0)"/>
    <use xlink:href="#DejaVuSans-f" transform="translate(2405.734375 0)"/>
    <use xlink:href="#DejaVuSans-3" transform="translate(2437.515625 0)"/>
    <use xlink:href="#DejaVuSans-53" transform="translate(2469.296875 0)"/>
    <use xlink:href="#DejaVuSans-4b" transform="translate(2532.78125 0)"/>
    <use xlink:href="#DejaVuSans-4c" transform="translate(2596.15625 0)"/>
    <use xlink:href="#DejaVuSans-55" transform="translate(2623.9375 0)"/>
    <use xlink:href="#DejaVuSans-48" transform="translate(2662.84375 0)"/>
    <use xlink:href="#DejaVuSans-4f" transform="translate(2724.375 0)"/>
    <use xlink:href="#DejaVuSans-c" transform="translate(2752.15625 0)"/>
    <use xlink:href="#DejaVuSans-f" transform="translate(2791.171875 0)"/>
    <use xlink:href="#DejaVuSans-3" transform="translate(2822.953125 0)"/>
    <use xlink:href="#DejaVuSans-45" transform="translate(2854.734375 0)"/>
    <use xlink:href="#DejaVuSans-4c" transform="translate(2918.21875 0)"/>
    <use xlink:href="#DejaVuSans-51" transform="translate(2946 0)"/>
    <use xlink:href="#DejaVuSans-44" transform="translate(3009.375 0)"/>
    <use xlink:href="#DejaVuSans-55" transform="translate(3070.65625 0)"/>
    <use xlink:href="#DejaVuSans-5c" transform="translate(3111.765625 0)"/>
    <use xlink:href="#DejaVuSans-3" transform="translate(3170.953125 0)"/>
    <use xlink:href="#DejaVuSans-5a" transform="translate(3202.734375 0)"/>
    <use xlink:href="#DejaVuSans-48" transform="translate(3284.515625 0)"/>
    <use xlink:href="#DejaVuSans-4c" transform="translate(3346.046875 0)"/>
    <use xlink:href="#DejaVuSans-4a" transform="translate(3373.828125 0)"/>
    <use xlink:href="#DejaVuSans-4b" transform="translate(3437.3125 0)"/>
    <use xlink:href="#DejaVuSans-57" transform="translate(3500.6875 0)"/>
    <use xlink:href="#DejaVuSans-56" transform="translate(3539.890625 0)"/>
    <use xlink:href="#DejaVuSans-11" transform="translate(3591.984375 0)"/>
   </g>
   <!-- All 7 of 7 checkpoints at or under 350,000 EBOPs. One seed per arm, so the -->
   <g style="fill: #333333" transform="translate(7.548125 403.508411) scale(0.14994 -0.14994)">
    <defs>
     <path id="DejaVuSans-24" d="M 2188 4044 
L 1331 1722 
L 3047 1722 
L 2188 4044 
z
M 1831 4666 
L 2547 4666 
L 4325 0 
L 3669 0 
L 3244 1197 
L 1141 1197 
L 716 0 
L 50 0 
L 1831 4666 
z
" transform="scale(0.015625)"/>
    </defs>
    <use xlink:href="#DejaVuSans-24"/>
    <use xlink:href="#DejaVuSans-4f" transform="translate(68.40625 0)"/>
    <use xlink:href="#DejaVuSans-4f" transform="translate(96.1875 0)"/>
    <use xlink:href="#DejaVuSans-3" transform="translate(123.96875 0)"/>
    <use xlink:href="#DejaVuSans-1a" transform="translate(155.75 0)"/>
    <use xlink:href="#DejaVuSans-3" transform="translate(219.375 0)"/>
    <use xlink:href="#DejaVuSans-52" transform="translate(251.15625 0)"/>
    <use xlink:href="#DejaVuSans-49" transform="translate(312.34375 0)"/>
    <use xlink:href="#DejaVuSans-3" transform="translate(347.546875 0)"/>
    <use xlink:href="#DejaVuSans-1a" transform="translate(379.328125 0)"/>
    <use xlink:href="#DejaVuSans-3" transform="translate(442.953125 0)"/>
    <use xlink:href="#DejaVuSans-46" transform="translate(474.734375 0)"/>
    <use xlink:href="#DejaVuSans-4b" transform="translate(529.71875 0)"/>
    <use xlink:href="#DejaVuSans-48" transform="translate(593.09375 0)"/>
    <use xlink:href="#DejaVuSans-46" transform="translate(654.625 0)"/>
    <use xlink:href="#DejaVuSans-4e" transform="translate(709.609375 0)"/>
    <use xlink:href="#DejaVuSans-53" transform="translate(767.515625 0)"/>
    <use xlink:href="#DejaVuSans-52" transform="translate(831 0)"/>
    <use xlink:href="#DejaVuSans-4c" transform="translate(892.1875 0)"/>
    <use xlink:href="#DejaVuSans-51" transform="translate(919.96875 0)"/>
    <use xlink:href="#DejaVuSans-57" transform="translate(983.34375 0)"/>
    <use xlink:href="#DejaVuSans-56" transform="translate(1022.546875 0)"/>
    <use xlink:href="#DejaVuSans-3" transform="translate(1074.640625 0)"/>
    <use xlink:href="#DejaVuSans-44" transform="translate(1106.421875 0)"/>
    <use xlink:href="#DejaVuSans-57" transform="translate(1167.703125 0)"/>
    <use xlink:href="#DejaVuSans-3" transform="translate(1206.90625 0)"/>
    <use xlink:href="#DejaVuSans-52" transform="translate(1238.6875 0)"/>
    <use xlink:href="#DejaVuSans-55" transform="translate(1299.875 0)"/>
    <use xlink:href="#DejaVuSans-3" transform="translate(1340.984375 0)"/>
    <use xlink:href="#DejaVuSans-58" transform="translate(1372.765625 0)"/>
    <use xlink:href="#DejaVuSans-51" transform="translate(1436.140625 0)"/>
    <use xlink:href="#DejaVuSans-47" transform="translate(1499.515625 0)"/>
    <use xlink:href="#DejaVuSans-48" transform="translate(1563 0)"/>
    <use xlink:href="#DejaVuSans-55" transform="translate(1624.53125 0)"/>
    <use xlink:href="#DejaVuSans-3" transform="translate(1665.640625 0)"/>
    <use xlink:href="#DejaVuSans-16" transform="translate(1697.421875 0)"/>
    <use xlink:href="#DejaVuSans-18" transform="translate(1761.046875 0)"/>
    <use xlink:href="#DejaVuSans-13" transform="translate(1824.671875 0)"/>
    <use xlink:href="#DejaVuSans-f" transform="translate(1888.296875 0)"/>
    <use xlink:href="#DejaVuSans-13" transform="translate(1920.078125 0)"/>
    <use xlink:href="#DejaVuSans-13" transform="translate(1983.703125 0)"/>
    <use xlink:href="#DejaVuSans-13" transform="translate(2047.328125 0)"/>
    <use xlink:href="#DejaVuSans-3" transform="translate(2110.953125 0)"/>
    <use xlink:href="#DejaVuSans-28" transform="translate(2142.734375 0)"/>
    <use xlink:href="#DejaVuSans-25" transform="translate(2205.921875 0)"/>
    <use xlink:href="#DejaVuSans-32" transform="translate(2272.78125 0)"/>
    <use xlink:href="#DejaVuSans-33" transform="translate(2351.5 0)"/>
    <use xlink:href="#DejaVuSans-56" transform="translate(2410.046875 0)"/>
    <use xlink:href="#DejaVuSans-11" transform="translate(2462.140625 0)"/>
    <use xlink:href="#DejaVuSans-3" transform="translate(2493.921875 0)"/>
    <use xlink:href="#DejaVuSans-32" transform="translate(2525.703125 0)"/>
    <use xlink:href="#DejaVuSans-51" transform="translate(2604.421875 0)"/>
    <use xlink:href="#DejaVuSans-48" transform="translate(2667.796875 0)"/>
    <use xlink:href="#DejaVuSans-3" transform="translate(2729.328125 0)"/>
    <use xlink:href="#DejaVuSans-56" transform="translate(2761.109375 0)"/>
    <use xlink:href="#DejaVuSans-48" transform="translate(2813.203125 0)"/>
    <use xlink:href="#DejaVuSans-48" transform="translate(2874.734375 0)"/>
    <use xlink:href="#DejaVuSans-47" transform="translate(2936.265625 0)"/>
    <use xlink:href="#DejaVuSans-3" transform="translate(2999.75 0)"/>
    <use xlink:href="#DejaVuSans-53" transform="translate(3031.53125 0)"/>
    <use xlink:href="#DejaVuSans-48" transform="translate(3095.015625 0)"/>
    <use xlink:href="#DejaVuSans-55" transform="translate(3156.546875 0)"/>
    <use xlink:href="#DejaVuSans-3" transform="translate(3197.65625 0)"/>
    <use xlink:href="#DejaVuSans-44" transform="translate(3229.4375 0)"/>
    <use xlink:href="#DejaVuSans-55" transform="translate(3290.71875 0)"/>
    <use xlink:href="#DejaVuSans-50" transform="translate(3330.078125 0)"/>
    <use xlink:href="#DejaVuSans-f" transform="translate(3427.484375 0)"/>
    <use xlink:href="#DejaVuSans-3" transform="translate(3459.265625 0)"/>
    <use xlink:href="#DejaVuSans-56" transform="translate(3491.046875 0)"/>
    <use xlink:href="#DejaVuSans-52" transform="translate(3543.140625 0)"/>
    <use xlink:href="#DejaVuSans-3" transform="translate(3604.328125 0)"/>
    <use xlink:href="#DejaVuSans-57" transform="translate(3636.109375 0)"/>
    <use xlink:href="#DejaVuSans-4b" transform="translate(3675.3125 0)"/>
    <use xlink:href="#DejaVuSans-48" transform="translate(3738.6875 0)"/>
   </g>
   <!-- order is not a ranking. -->
   <g style="fill: #333333" transform="translate(7.548125 421.505311) scale(0.14994 -0.14994)">
    <use xlink:href="#DejaVuSans-52"/>
    <use xlink:href="#DejaVuSans-55" transform="translate(61.1875 0)"/>
    <use xlink:href="#DejaVuSans-47" transform="translate(100.546875 0)"/>
    <use xlink:href="#DejaVuSans-48" transform="translate(164.03125 0)"/>
    <use xlink:href="#DejaVuSans-55" transform="translate(225.5625 0)"/>
    <use xlink:href="#DejaVuSans-3" transform="translate(266.671875 0)"/>
    <use xlink:href="#DejaVuSans-4c" transform="translate(298.453125 0)"/>
    <use xlink:href="#DejaVuSans-56" transform="translate(326.234375 0)"/>
    <use xlink:href="#DejaVuSans-3" transform="translate(378.328125 0)"/>
    <use xlink:href="#DejaVuSans-51" transform="translate(410.109375 0)"/>
    <use xlink:href="#DejaVuSans-52" transform="translate(473.484375 0)"/>
    <use xlink:href="#DejaVuSans-57" transform="translate(534.671875 0)"/>
    <use xlink:href="#DejaVuSans-3" transform="translate(573.875 0)"/>
    <use xlink:href="#DejaVuSans-44" transform="translate(605.65625 0)"/>
    <use xlink:href="#DejaVuSans-3" transform="translate(666.9375 0)"/>
    <use xlink:href="#DejaVuSans-55" transform="translate(698.71875 0)"/>
    <use xlink:href="#DejaVuSans-44" transform="translate(739.828125 0)"/>
    <use xlink:href="#DejaVuSans-51" transform="translate(801.109375 0)"/>
    <use xlink:href="#DejaVuSans-4e" transform="translate(864.484375 0)"/>
    <use xlink:href="#DejaVuSans-4c" transform="translate(922.390625 0)"/>
    <use xlink:href="#DejaVuSans-51" transform="translate(950.171875 0)"/>
    <use xlink:href="#DejaVuSans-4a" transform="translate(1013.546875 0)"/>
    <use xlink:href="#DejaVuSans-11" transform="translate(1077.03125 0)"/>
   </g>
   <!-- Held-out (ROC-test) split: n = 260,000 jets never used in training or -->
   <g style="fill: #333333" transform="translate(7.548125 439.502211) scale(0.14994 -0.14994)">
    <defs>
     <path id="DejaVuSans-2b" d="M 628 4666 
L 1259 4666 
L 1259 2753 
L 3553 2753 
L 3553 4666 
L 4184 4666 
L 4184 0 
L 3553 0 
L 3553 2222 
L 1259 2222 
L 1259 0 
L 628 0 
L 628 4666 
z
" transform="scale(0.015625)"/>
     <path id="DejaVuSans-4d" d="M 603 3500 
L 1178 3500 
L 1178 -63 
Q 1178 -731 923 -1031 
Q 669 -1331 103 -1331 
L -116 -1331 
L -116 -844 
L 38 -844 
Q 366 -844 484 -692 
Q 603 -541 603 -63 
L 603 3500 
z
M 603 4863 
L 1178 4863 
L 1178 4134 
L 603 4134 
L 603 4863 
z
" transform="scale(0.015625)"/>
    </defs>
    <use xlink:href="#DejaVuSans-2b"/>
    <use xlink:href="#DejaVuSans-48" transform="translate(75.203125 0)"/>
    <use xlink:href="#DejaVuSans-4f" transform="translate(136.734375 0)"/>
    <use xlink:href="#DejaVuSans-47" transform="translate(164.515625 0)"/>
    <use xlink:href="#DejaVuSans-10" transform="translate(228 0)"/>
    <use xlink:href="#DejaVuSans-52" transform="translate(265.9375 0)"/>
    <use xlink:href="#DejaVuSans-58" transform="translate(327.125 0)"/>
    <use xlink:href="#DejaVuSans-57" transform="translate(390.5 0)"/>
    <use xlink:href="#DejaVuSans-3" transform="translate(429.703125 0)"/>
    <use xlink:href="#DejaVuSans-b" transform="translate(461.484375 0)"/>
    <use xlink:href="#DejaVuSans-35" transform="translate(500.5 0)"/>
    <use xlink:href="#DejaVuSans-32" transform="translate(569.984375 0)"/>
    <use xlink:href="#DejaVuSans-26" transform="translate(648.703125 0)"/>
    <use xlink:href="#DejaVuSans-10" transform="translate(718.53125 0)"/>
    <use xlink:href="#DejaVuSans-57" transform="translate(754.609375 0)"/>
    <use xlink:href="#DejaVuSans-48" transform="translate(793.8125 0)"/>
    <use xlink:href="#DejaVuSans-56" transform="translate(855.34375 0)"/>
    <use xlink:href="#DejaVuSans-57" transform="translate(907.4375 0)"/>
    <use xlink:href="#DejaVuSans-c" transform="translate(946.640625 0)"/>
    <use xlink:href="#DejaVuSans-3" transform="translate(985.65625 0)"/>
    <use xlink:href="#DejaVuSans-56" transform="translate(1017.4375 0)"/>
    <use xlink:href="#DejaVuSans-53" transform="translate(1069.53125 0)"/>
    <use xlink:href="#DejaVuSans-4f" transform="translate(1133.015625 0)"/>
    <use xlink:href="#DejaVuSans-4c" transform="translate(1160.796875 0)"/>
    <use xlink:href="#DejaVuSans-57" transform="translate(1188.578125 0)"/>
    <use xlink:href="#DejaVuSans-1d" transform="translate(1227.78125 0)"/>
    <use xlink:href="#DejaVuSans-3" transform="translate(1261.46875 0)"/>
    <use xlink:href="#DejaVuSans-51" transform="translate(1293.25 0)"/>
    <use xlink:href="#DejaVuSans-3" transform="translate(1356.625 0)"/>
    <use xlink:href="#DejaVuSans-20" transform="translate(1388.40625 0)"/>
    <use xlink:href="#DejaVuSans-3" transform="translate(1472.203125 0)"/>
    <use xlink:href="#DejaVuSans-15" transform="translate(1503.984375 0)"/>
    <use xlink:href="#DejaVuSans-19" transform="translate(1567.609375 0)"/>
    <use xlink:href="#DejaVuSans-13" transform="translate(1631.234375 0)"/>
    <use xlink:href="#DejaVuSans-f" transform="translate(1694.859375 0)"/>
    <use xlink:href="#DejaVuSans-13" transform="translate(1726.640625 0)"/>
    <use xlink:href="#DejaVuSans-13" transform="translate(1790.265625 0)"/>
    <use xlink:href="#DejaVuSans-13" transform="translate(1853.890625 0)"/>
    <use xlink:href="#DejaVuSans-3" transform="translate(1917.515625 0)"/>
    <use xlink:href="#DejaVuSans-4d" transform="translate(1949.296875 0)"/>
    <use xlink:href="#DejaVuSans-48" transform="translate(1977.078125 0)"/>
    <use xlink:href="#DejaVuSans-57" transform="translate(2038.609375 0)"/>
    <use xlink:href="#DejaVuSans-56" transform="translate(2077.8125 0)"/>
    <use xlink:href="#DejaVuSans-3" transform="translate(2129.90625 0)"/>
    <use xlink:href="#DejaVuSans-51" transform="translate(2161.6875 0)"/>
    <use xlink:href="#DejaVuSans-48" transform="translate(2225.0625 0)"/>
    <use xlink:href="#DejaVuSans-59" transform="translate(2286.59375 0)"/>
    <use xlink:href="#DejaVuSans-48" transform="translate(2345.78125 0)"/>
    <use xlink:href="#DejaVuSans-55" transform="translate(2407.3125 0)"/>
    <use xlink:href="#DejaVuSans-3" transform="translate(2448.421875 0)"/>
    <use xlink:href="#DejaVuSans-58" transform="translate(2480.203125 0)"/>
    <use xlink:href="#DejaVuSans-56" transform="translate(2543.578125 0)"/>
    <use xlink:href="#DejaVuSans-48" transform="translate(2595.671875 0)"/>
    <use xlink:href="#DejaVuSans-47" transform="translate(2657.203125 0)"/>
    <use xlink:href="#DejaVuSans-3" transform="translate(2720.6875 0)"/>
    <use xlink:href="#DejaVuSans-4c" transform="translate(2752.46875 0)"/>
    <use xlink:href="#DejaVuSans-51" transform="translate(2780.25 0)"/>
    <use xlink:href="#DejaVuSans-3" transform="translate(2843.625 0)"/>
    <use xlink:href="#DejaVuSans-57" transform="translate(2875.40625 0)"/>
    <use xlink:href="#DejaVuSans-55" transform="translate(2914.609375 0)"/>
    <use xlink:href="#DejaVuSans-44" transform="translate(2955.71875 0)"/>
    <use xlink:href="#DejaVuSans-4c" transform="translate(3017 0)"/>
    <use xlink:href="#DejaVuSans-51" transform="translate(3044.78125 0)"/>
    <use xlink:href="#DejaVuSans-4c" transform="translate(3108.15625 0)"/>
    <use xlink:href="#DejaVuSans-51" transform="translate(3135.9375 0)"/>
    <use xlink:href="#DejaVuSans-4a" transform="translate(3199.3125 0)"/>
    <use xlink:href="#DejaVuSans-3" transform="translate(3262.796875 0)"/>
    <use xlink:href="#DejaVuSans-52" transform="translate(3294.578125 0)"/>
    <use xlink:href="#DejaVuSans-55" transform="translate(3355.765625 0)"/>
   </g>
   <!-- checkpoint selection. Open marker: checkpoint selected from an interim -->
   <g style="fill: #333333" transform="translate(7.548125 457.499111) scale(0.14994 -0.14994)">
    <use xlink:href="#DejaVuSans-46"/>
    <use xlink:href="#DejaVuSans-4b" transform="translate(54.984375 0)"/>
    <use xlink:href="#DejaVuSans-48" transform="translate(118.359375 0)"/>
    <use xlink:href="#DejaVuSans-46" transform="translate(179.890625 0)"/>
    <use xlink:href="#DejaVuSans-4e" transform="translate(234.875 0)"/>
    <use xlink:href="#DejaVuSans-53" transform="translate(292.78125 0)"/>
    <use xlink:href="#DejaVuSans-52" transform="translate(356.265625 0)"/>
    <use xlink:href="#DejaVuSans-4c" transform="translate(417.453125 0)"/>
    <use xlink:href="#DejaVuSans-51" transform="translate(445.234375 0)"/>
    <use xlink:href="#DejaVuSans-57" transform="translate(508.609375 0)"/>
    <use xlink:href="#DejaVuSans-3" transform="translate(547.8125 0)"/>
    <use xlink:href="#DejaVuSans-56" transform="translate(579.59375 0)"/>
    <use xlink:href="#DejaVuSans-48" transform="translate(631.6875 0)"/>
    <use xlink:href="#DejaVuSans-4f" transform="translate(693.21875 0)"/>
    <use xlink:href="#DejaVuSans-48" transform="translate(721 0)"/>
    <use xlink:href="#DejaVuSans-46" transform="translate(782.53125 0)"/>
    <use xlink:href="#DejaVuSans-57" transform="translate(837.515625 0)"/>
    <use xlink:href="#DejaVuSans-4c" transform="translate(876.71875 0)"/>
    <use xlink:href="#DejaVuSans-52" transform="translate(904.5 0)"/>
    <use xlink:href="#DejaVuSans-51" transform="translate(965.6875 0)"/>
    <use xlink:href="#DejaVuSans-11" transform="translate(1029.0625 0)"/>
    <use xlink:href="#DejaVuSans-3" transform="translate(1060.84375 0)"/>
    <use xlink:href="#DejaVuSans-32" transform="translate(1092.625 0)"/>
    <use xlink:href="#DejaVuSans-53" transform="translate(1171.34375 0)"/>
    <use xlink:href="#DejaVuSans-48" transform="translate(1234.828125 0)"/>
    <use xlink:href="#DejaVuSans-51" transform="translate(1296.359375 0)"/>
    <use xlink:href="#DejaVuSans-3" transform="translate(1359.734375 0)"/>
    <use xlink:href="#DejaVuSans-50" transform="translate(1391.515625 0)"/>
    <use xlink:href="#DejaVuSans-44" transform="translate(1488.921875 0)"/>
    <use xlink:href="#DejaVuSans-55" transform="translate(1550.203125 0)"/>
    <use xlink:href="#DejaVuSans-4e" transform="translate(1591.3125 0)"/>
    <use xlink:href="#DejaVuSans-48" transform="translate(1645.65625 0)"/>
    <use xlink:href="#DejaVuSans-55" transform="translate(1707.1875 0)"/>
    <use xlink:href="#DejaVuSans-1d" transform="translate(1746.546875 0)"/>
    <use xlink:href="#DejaVuSans-3" transform="translate(1780.234375 0)"/>
    <use xlink:href="#DejaVuSans-46" transform="translate(1812.015625 0)"/>
    <use xlink:href="#DejaVuSans-4b" transform="translate(1867 0)"/>
    <use xlink:href="#DejaVuSans-48" transform="translate(1930.375 0)"/>
    <use xlink:href="#DejaVuSans-46" transform="translate(1991.90625 0)"/>
    <use xlink:href="#DejaVuSans-4e" transform="translate(2046.890625 0)"/>
    <use xlink:href="#DejaVuSans-53" transform="translate(2104.796875 0)"/>
    <use xlink:href="#DejaVuSans-52" transform="translate(2168.28125 0)"/>
    <use xlink:href="#DejaVuSans-4c" transform="translate(2229.46875 0)"/>
    <use xlink:href="#DejaVuSans-51" transform="translate(2257.25 0)"/>
    <use xlink:href="#DejaVuSans-57" transform="translate(2320.625 0)"/>
    <use xlink:href="#DejaVuSans-3" transform="translate(2359.828125 0)"/>
    <use xlink:href="#DejaVuSans-56" transform="translate(2391.609375 0)"/>
    <use xlink:href="#DejaVuSans-48" transform="translate(2443.703125 0)"/>
    <use xlink:href="#DejaVuSans-4f" transform="translate(2505.234375 0)"/>
    <use xlink:href="#DejaVuSans-48" transform="translate(2533.015625 0)"/>
    <use xlink:href="#DejaVuSans-46" transform="translate(2594.546875 0)"/>
    <use xlink:href="#DejaVuSans-57" transform="translate(2649.53125 0)"/>
    <use xlink:href="#DejaVuSans-48" transform="translate(2688.734375 0)"/>
    <use xlink:href="#DejaVuSans-47" transform="translate(2750.265625 0)"/>
    <use xlink:href="#DejaVuSans-3" transform="translate(2813.75 0)"/>
    <use xlink:href="#DejaVuSans-49" transform="translate(2845.53125 0)"/>
    <use xlink:href="#DejaVuSans-55" transform="translate(2880.734375 0)"/>
    <use xlink:href="#DejaVuSans-52" transform="translate(2919.640625 0)"/>
    <use xlink:href="#DejaVuSans-50" transform="translate(2980.828125 0)"/>
    <use xlink:href="#DejaVuSans-3" transform="translate(3078.234375 0)"/>
    <use xlink:href="#DejaVuSans-44" transform="translate(3110.015625 0)"/>
    <use xlink:href="#DejaVuSans-51" transform="translate(3171.296875 0)"/>
    <use xlink:href="#DejaVuSans-3" transform="translate(3234.671875 0)"/>
    <use xlink:href="#DejaVuSans-4c" transform="translate(3266.453125 0)"/>
    <use xlink:href="#DejaVuSans-51" transform="translate(3294.234375 0)"/>
    <use xlink:href="#DejaVuSans-57" transform="translate(3357.609375 0)"/>
    <use xlink:href="#DejaVuSans-48" transform="translate(3396.8125 0)"/>
    <use xlink:href="#DejaVuSans-55" transform="translate(3458.34375 0)"/>
    <use xlink:href="#DejaVuSans-4c" transform="translate(3499.453125 0)"/>
    <use xlink:href="#DejaVuSans-50" transform="translate(3527.234375 0)"/>
   </g>
   <!-- snapshot, not from the end of training. Source: -->
   <g style="fill: #333333" transform="translate(7.548125 475.496011) scale(0.14994 -0.14994)">
    <use xlink:href="#DejaVuSans-56"/>
    <use xlink:href="#DejaVuSans-51" transform="translate(52.09375 0)"/>
    <use xlink:href="#DejaVuSans-44" transform="translate(115.46875 0)"/>
    <use xlink:href="#DejaVuSans-53" transform="translate(176.75 0)"/>
    <use xlink:href="#DejaVuSans-56" transform="translate(240.234375 0)"/>
    <use xlink:href="#DejaVuSans-4b" transform="translate(292.328125 0)"/>
    <use xlink:href="#DejaVuSans-52" transform="translate(355.703125 0)"/>
    <use xlink:href="#DejaVuSans-57" transform="translate(416.890625 0)"/>
    <use xlink:href="#DejaVuSans-f" transform="translate(456.09375 0)"/>
    <use xlink:href="#DejaVuSans-3" transform="translate(487.875 0)"/>
    <use xlink:href="#DejaVuSans-51" transform="translate(519.65625 0)"/>
    <use xlink:href="#DejaVuSans-52" transform="translate(583.03125 0)"/>
    <use xlink:href="#DejaVuSans-57" transform="translate(644.21875 0)"/>
    <use xlink:href="#DejaVuSans-3" transform="translate(683.421875 0)"/>
    <use xlink:href="#DejaVuSans-49" transform="translate(715.203125 0)"/>
    <use xlink:href="#DejaVuSans-55" transform="translate(750.40625 0)"/>
    <use xlink:href="#DejaVuSans-52" transform="translate(789.3125 0)"/>
    <use xlink:href="#DejaVuSans-50" transform="translate(850.5 0)"/>
    <use xlink:href="#DejaVuSans-3" transform="translate(947.90625 0)"/>
    <use xlink:href="#DejaVuSans-57" transform="translate(979.6875 0)"/>
    <use xlink:href="#DejaVuSans-4b" transform="translate(1018.890625 0)"/>
    <use xlink:href="#DejaVuSans-48" transform="translate(1082.265625 0)"/>
    <use xlink:href="#DejaVuSans-3" transform="translate(1143.796875 0)"/>
    <use xlink:href="#DejaVuSans-48" transform="translate(1175.578125 0)"/>
    <use xlink:href="#DejaVuSans-51" transform="translate(1237.109375 0)"/>
    <use xlink:href="#DejaVuSans-47" transform="translate(1300.484375 0)"/>
    <use xlink:href="#DejaVuSans-3" transform="translate(1363.96875 0)"/>
    <use xlink:href="#DejaVuSans-52" transform="translate(1395.75 0)"/>
    <use xlink:href="#DejaVuSans-49" transform="translate(1456.9375 0)"/>
    <use xlink:href="#DejaVuSans-3" transform="translate(1492.140625 0)"/>
    <use xlink:href="#DejaVuSans-57" transform="translate(1523.921875 0)"/>
    <use xlink:href="#DejaVuSans-55" transform="translate(1563.125 0)"/>
    <use xlink:href="#DejaVuSans-44" transform="translate(1604.234375 0)"/>
    <use xlink:href="#DejaVuSans-4c" transform="translate(1665.515625 0)"/>
    <use xlink:href="#DejaVuSans-51" transform="translate(1693.296875 0)"/>
    <use xlink:href="#DejaVuSans-4c" transform="translate(1756.671875 0)"/>
    <use xlink:href="#DejaVuSans-51" transform="translate(1784.453125 0)"/>
    <use xlink:href="#DejaVuSans-4a" transform="translate(1847.828125 0)"/>
    <use xlink:href="#DejaVuSans-11" transform="translate(1911.3125 0)"/>
    <use xlink:href="#DejaVuSans-3" transform="translate(1943.09375 0)"/>
    <use xlink:href="#DejaVuSans-36" transform="translate(1974.875 0)"/>
    <use xlink:href="#DejaVuSans-52" transform="translate(2038.359375 0)"/>
    <use xlink:href="#DejaVuSans-58" transform="translate(2099.546875 0)"/>
    <use xlink:href="#DejaVuSans-55" transform="translate(2162.921875 0)"/>
    <use xlink:href="#DejaVuSans-46" transform="translate(2201.828125 0)"/>
    <use xlink:href="#DejaVuSans-48" transform="translate(2256.8125 0)"/>
    <use xlink:href="#DejaVuSans-1d" transform="translate(2318.34375 0)"/>
   </g>
   <!-- campaigns/2026-09-16-accuracy-investigation/remote-results. -->
   <g style="fill: #333333" transform="translate(7.548125 493.492911) scale(0.14994 -0.14994)">
    <defs>
     <path id="DejaVuSans-12" d="M 1625 4666 
L 2156 4666 
L 531 -594 
L 0 -594 
L 1625 4666 
z
" transform="scale(0.015625)"/>
    </defs>
    <use xlink:href="#DejaVuSans-46"/>
    <use xlink:href="#DejaVuSans-44" transform="translate(54.984375 0)"/>
    <use xlink:href="#DejaVuSans-50" transform="translate(116.265625 0)"/>
    <use xlink:href="#DejaVuSans-53" transform="translate(213.671875 0)"/>
    <use xlink:href="#DejaVuSans-44" transform="translate(277.15625 0)"/>
    <use xlink:href="#DejaVuSans-4c" transform="translate(338.4375 0)"/>
    <use xlink:href="#DejaVuSans-4a" transform="translate(366.21875 0)"/>
    <use xlink:href="#DejaVuSans-51" transform="translate(429.703125 0)"/>
    <use xlink:href="#DejaVuSans-56" transform="translate(493.078125 0)"/>
    <use xlink:href="#DejaVuSans-12" transform="translate(545.171875 0)"/>
    <use xlink:href="#DejaVuSans-15" transform="translate(578.859375 0)"/>
    <use xlink:href="#DejaVuSans-13" transform="translate(642.484375 0)"/>
    <use xlink:href="#DejaVuSans-15" transform="translate(706.109375 0)"/>
    <use xlink:href="#DejaVuSans-19" transform="translate(769.734375 0)"/>
    <use xlink:href="#DejaVuSans-10" transform="translate(833.359375 0)"/>
    <use xlink:href="#DejaVuSans-13" transform="translate(869.4375 0)"/>
    <use xlink:href="#DejaVuSans-1c" transform="translate(933.0625 0)"/>
    <use xlink:href="#DejaVuSans-10" transform="translate(996.6875 0)"/>
    <use xlink:href="#DejaVuSans-14" transform="translate(1032.765625 0)"/>
    <use xlink:href="#DejaVuSans-19" transform="translate(1096.390625 0)"/>
    <use xlink:href="#DejaVuSans-10" transform="translate(1160.015625 0)"/>
    <use xlink:href="#DejaVuSans-44" transform="translate(1196.09375 0)"/>
    <use xlink:href="#DejaVuSans-46" transform="translate(1257.375 0)"/>
    <use xlink:href="#DejaVuSans-46" transform="translate(1312.359375 0)"/>
    <use xlink:href="#DejaVuSans-58" transform="translate(1367.34375 0)"/>
    <use xlink:href="#DejaVuSans-55" transform="translate(1430.71875 0)"/>
    <use xlink:href="#DejaVuSans-44" transform="translate(1471.828125 0)"/>
    <use xlink:href="#DejaVuSans-46" transform="translate(1533.109375 0)"/>
    <use xlink:href="#DejaVuSans-5c" transform="translate(1588.09375 0)"/>
    <use xlink:href="#DejaVuSans-10" transform="translate(1645.53125 0)"/>
    <use xlink:href="#DejaVuSans-4c" transform="translate(1681.609375 0)"/>
    <use xlink:href="#DejaVuSans-51" transform="translate(1709.390625 0)"/>
    <use xlink:href="#DejaVuSans-59" transform="translate(1772.765625 0)"/>
    <use xlink:href="#DejaVuSans-48" transform="translate(1831.953125 0)"/>
    <use xlink:href="#DejaVuSans-56" transform="translate(1893.484375 0)"/>
    <use xlink:href="#DejaVuSans-57" transform="translate(1945.578125 0)"/>
    <use xlink:href="#DejaVuSans-4c" transform="translate(1984.78125 0)"/>
    <use xlink:href="#DejaVuSans-4a" transform="translate(2012.5625 0)"/>
    <use xlink:href="#DejaVuSans-44" transform="translate(2076.046875 0)"/>
    <use xlink:href="#DejaVuSans-57" transform="translate(2137.328125 0)"/>
    <use xlink:href="#DejaVuSans-4c" transform="translate(2176.53125 0)"/>
    <use xlink:href="#DejaVuSans-52" transform="translate(2204.3125 0)"/>
    <use xlink:href="#DejaVuSans-51" transform="translate(2265.5 0)"/>
    <use xlink:href="#DejaVuSans-12" transform="translate(2328.875 0)"/>
    <use xlink:href="#DejaVuSans-55" transform="translate(2362.5625 0)"/>
    <use xlink:href="#DejaVuSans-48" transform="translate(2401.46875 0)"/>
    <use xlink:href="#DejaVuSans-50" transform="translate(2463 0)"/>
    <use xlink:href="#DejaVuSans-52" transform="translate(2560.40625 0)"/>
    <use xlink:href="#DejaVuSans-57" transform="translate(2621.59375 0)"/>
    <use xlink:href="#DejaVuSans-48" transform="translate(2660.796875 0)"/>
    <use xlink:href="#DejaVuSans-10" transform="translate(2722.328125 0)"/>
    <use xlink:href="#DejaVuSans-55" transform="translate(2758.40625 0)"/>
    <use xlink:href="#DejaVuSans-48" transform="translate(2797.3125 0)"/>
    <use xlink:href="#DejaVuSans-56" transform="translate(2858.84375 0)"/>
    <use xlink:href="#DejaVuSans-58" transform="translate(2910.9375 0)"/>
    <use xlink:href="#DejaVuSans-4f" transform="translate(2974.3125 0)"/>
    <use xlink:href="#DejaVuSans-57" transform="translate(3002.09375 0)"/>
    <use xlink:href="#DejaVuSans-56" transform="translate(3041.296875 0)"/>
    <use xlink:href="#DejaVuSans-11" transform="translate(3093.390625 0)"/>
   </g>
  </g>
 </g>
 <defs>
  <clipPath id="p4c115cddd2">
   <rect x="98.335938" y="7.2" width="558" height="277.2"/>
  </clipPath>
 </defs>
</svg>
